<svg xmlns="http://www.w3.org/2000/svg" version="1.2" viewBox="0 0 3500 607.62"><g fill="none" stroke="#000" stroke-linejoin="bevel" stroke-width="2.73"><path d="M596.536 119.94H2935.07M596.536 144.74H2935.07M596.536 169.54H2935.07M596.536 194.34H2935.07M596.536 219.14H2935.07M596.536 390.58H2935.07M596.536 415.38H2935.07M596.536 440.18H2935.07M596.536 464.98H2935.07M596.536 489.78H2935.07" class="StaffLines"/></g><g fill-rule="evenodd" stroke="#000" stroke-linecap="round" stroke-linejoin="round" stroke-width="1.74"><path d="M2463 67.608c64.35-28.401 173.25-2.381 217.8 52.042-46.16-47.669-155.06-73.689-217.8-52.042M1975 67.608c81.65-41.671 327.25-42.921 409.32-2.084-82.04-33.893-327.63-32.643-409.32 2.084M1523.7 42.808c75.979-34.66 296.59-20.922 367.68 22.897-71.52-36.888-292.13-50.627-367.68-22.897M885.44 30.509c80.807-44.854 453.31-36.959 532.14 11.279C1338.598.493 966.1-7.402 885.44 30.509M1532.4 400.5c45.65 37.69 144.84 50.09 198.37 24.8-54.39 32.18-153.58 19.78-198.37-24.8" class="SlurSegment"/><path d="M2588.3 239.84c10.17-13.392 40.67-13.392 50.83 0-10.16-6.448-40.66-6.448-50.83 0M1964.9 249.52c46.32 28.768 185.3 28.768 231.62 0-46.32 35.712-185.3 35.712-231.62 0M2466.8 460.89c36.21 21.328 144.82 21.328 181.02 0-36.2 28.272-144.81 28.272-181.02 0" class="TieSegment"/></g><g fill="none" stroke="#000" stroke-linejoin="bevel"><g stroke-width="4.46"><path d="M598.768 118.57v272.01M2168.17 118.57v272.01M2910.07 118.57v272.01" class="BarLine"/></g><path stroke-width="13.64" d="M2928.27 118.57v272.01" class="BarLine"/><g stroke-width="4.46"><path d="M1191.43 118.57v272.01M2168.17 389.22v101.93M598.768 389.22v101.93M2910.07 389.22v101.93" class="BarLine"/></g><path stroke-width="13.64" d="M2928.27 389.22v101.93" class="BarLine"/><path stroke-width="4.46" d="M1191.43 389.22v101.93" class="BarLine"/></g><path d="M2045.9 196.32c.605-.093 1.1-.79 1.1-1.395v-5.844c0-.992-.697-1.395-1.596-1.395l-3.27.698v-14.787h-2.775v15.376l-8.835 1.798v-13.996h-2.775v14.585l-3.875.79c-.589.109-1.085.79-1.085 1.395v5.751c0 1.085.791 1.395 1.69 1.395l3.27-.698v16.368l-3.875.791c-.589.093-1.085.79-1.085 1.395v5.75c0 1.085.791 1.38 1.69 1.38l3.27-.682v14.771h2.775V224.39l8.835-1.783v13.997h2.775V222.02l3.766-.697c.605-.109 1.1-.79 1.1-1.395v-5.844c0-.992-.697-1.395-1.596-1.395l-3.27.698v-16.368l3.766-.698m-15.376 3.07 8.835-1.783v16.368l-8.835 1.89V199.39" class="Accidental"/><g fill="none" stroke="#000" stroke-linejoin="bevel"><g stroke-width="3.97"><path d="M2645.27 243.94h49.6M2645.27 268.74h49.6M2645.27 243.94h49.6M2532.47 243.94h49.6M2419.67 243.94h49.6M1217.23 365.78h49.59M2532.47 514.58h49.6M2532.47 539.38h49.6M1480.35 365.78h49.62" class="LedgerLine"/></g><g stroke-width="2.48"><path d="M1520.02 190.37V57.94M2684.97 239.97V119.94M2084.17 202.77V82.74M881.72 103.57V45.64M994.55 115.97V54.84M1107.37 140.77V64.03M2572.17 239.97V82.74M1632.87 177.97V57.94M1256.9 153.17V57.94M1745.67 165.57V82.74M1369.73 115.97V57.94M2233.67 190.37V82.74M2459.27 227.57V82.74M1858.47 140.77V82.74M2346.47 140.77V82.74M1971.27 190.37V82.74M2429.57 260.5v57.84M1490.27 223.3v57.84M2655.27 272.9v57.84M2203.87 235.7v57.84M1941.57 235.7v57.84M1941.57 407.15v119.7M2054.37 394.75v119.96M1547.27 374.21v-57.94M1227.15 369.95v150.83M2459.27 448.61V340.98M1632.87 386.61v-64.32M1745.67 399.01v-58.03M2684.97 498.21V371.98M1490.27 369.95v150.83M2203.87 382.35v107.43M2429.57 456.75v132.36M2542.37 543.55v57.7" class="Stem"/></g></g><g stroke-width=".992"><path d="M2053.2 210.91c0 4.263 3.069 9.021 11.114 9.021 10.308 0 21.126-8.432 21.126-17.159 0-5.859-4.96-9.13-11.114-9.13-9.625 0-21.126 8.138-21.126 17.267M2541.2 223.31c0 4.263 3.069 9.021 11.114 9.021 10.308 0 21.126-8.432 21.126-17.159 0-5.859-4.96-9.13-11.114-9.13-9.625 0-21.126 8.138-21.126 17.268M1827.5 148.91c0 4.263 3.069 9.021 11.114 9.021 10.308 0 21.126-8.432 21.126-17.159 0-5.859-4.96-9.13-11.114-9.13-9.625 0-21.126 8.138-21.126 17.267M2315.5 148.91c0 4.263 3.069 9.021 11.114 9.021 10.308 0 21.126-8.432 21.126-17.159 0-5.859-4.96-9.13-11.114-9.13-9.625 0-21.126 8.138-21.126 17.267M2428.3 235.71c0 4.263 3.069 9.021 11.114 9.021 10.308 0 21.126-8.432 21.126-17.159 0-5.859-4.96-9.13-11.114-9.13-9.625 0-21.126 8.138-21.126 17.267M1338.7 124.11c0 4.263 3.069 9.021 11.113 9.021 10.308 0 21.127-8.432 21.127-17.159 0-5.859-4.96-9.13-11.114-9.13-9.626 0-21.126 8.138-21.126 17.268M1714.7 173.71c0 4.263 3.069 9.021 11.114 9.021 10.308 0 21.126-8.432 21.126-17.159 0-5.859-4.96-9.13-11.114-9.13-9.625 0-21.126 8.138-21.126 17.267M2675.1 193.64c-9.625 0-21.126 8.044-21.126 17.267 0 4.262 3.069 9.021 11.114 9.021 10.308 0 21.126-8.432 21.126-17.159 0-5.859-4.96-9.13-11.114-9.13m-13.686 21.622c-3.27 0-3.968-2.665-3.968-3.564 0-4.867 16.662-13.392 21.328-13.392 2.387 0 3.968 1.395 3.968 3.565 0 4.96-16.771 13.392-21.328 13.392M1601.9 186.11c0 4.263 3.069 9.021 11.114 9.021 10.308 0 21.126-8.432 21.126-17.159 0-5.859-4.96-9.13-11.114-9.13-9.625 0-21.126 8.138-21.126 17.268" class="Note"/><path d="M2053.2 186.11c0 4.263 3.069 9.021 11.114 9.021 10.308 0 21.126-8.432 21.126-17.159 0-5.859-4.96-9.13-11.114-9.13-9.625 0-21.126 8.138-21.126 17.268M1225.9 161.31c0 4.263 3.069 9.021 11.113 9.021 10.308 0 21.127-8.432 21.127-17.159 0-5.859-4.96-9.13-11.114-9.13-9.626 0-21.126 8.138-21.126 17.268M1076.4 148.91c0 4.263 3.069 9.021 11.113 9.021 10.308 0 21.127-8.432 21.127-17.159 0-5.859-4.96-9.13-11.114-9.13-9.626 0-21.126 8.138-21.126 17.267M2202.7 198.51c0 4.263 3.069 9.021 11.114 9.021 10.308 0 21.126-8.432 21.126-17.159 0-5.859-4.96-9.13-11.114-9.13-9.625 0-21.126 8.138-21.126 17.268" class="Note"/><path d="M2202.7 173.71c0 4.263 3.069 9.021 11.114 9.021 10.308 0 21.126-8.432 21.126-17.159 0-5.859-4.96-9.13-11.114-9.13-9.625 0-21.126 8.138-21.126 17.267M2675.1 230.84c-9.625 0-21.126 8.044-21.126 17.267 0 4.263 3.069 9.021 11.114 9.021 10.308 0 21.126-8.432 21.126-17.159 0-5.859-4.96-9.13-11.114-9.13m-13.686 21.622c-3.27 0-3.968-2.666-3.968-3.565 0-4.866 16.662-13.391 21.328-13.391 2.387 0 3.968 1.395 3.968 3.565 0 4.96-16.771 13.392-21.328 13.392M1940.3 198.51c0 4.263 3.069 9.021 11.114 9.021 10.308 0 21.126-8.432 21.126-17.159 0-5.859-4.96-9.13-11.114-9.13-9.625 0-21.126 8.138-21.126 17.268M1489 198.51c0 4.263 3.069 9.021 11.113 9.021 10.308 0 21.127-8.432 21.127-17.159 0-5.859-4.96-9.13-11.114-9.13-9.626 0-21.126 8.138-21.126 17.268M963.56 124.11c0 4.263 3.069 9.021 11.113 9.021 10.308 0 21.127-8.432 21.127-17.159 0-5.859-4.96-9.13-11.113-9.13-9.626 0-21.127 8.138-21.127 17.268M850.73 111.71c0 4.263 3.069 9.021 11.113 9.021 10.308 0 21.127-8.432 21.127-17.159 0-5.859-4.96-9.13-11.113-9.13-9.626 0-21.127 8.138-21.127 17.268M2541.2 248.11c0 4.263 3.069 9.021 11.114 9.021 10.308 0 21.126-8.432 21.126-17.159 0-5.859-4.96-9.13-11.114-9.13-9.625 0-21.126 8.138-21.126 17.268" class="Note"/><path d="M2675.1 255.64c-9.625 0-21.126 8.044-21.126 17.267 0 4.263 3.069 9.021 11.114 9.021 10.308 0 21.126-8.432 21.126-17.159 0-5.859-4.96-9.13-11.114-9.13m-13.686 21.622c-3.27 0-3.968-2.666-3.968-3.565 0-4.867 16.662-13.392 21.328-13.392 2.387 0 3.968 1.396 3.968 3.566 0 4.96-16.771 13.392-21.328 13.392M1510.2 206.04c-9.626 0-21.126 8.044-21.126 17.267 0 4.263 3.069 9.021 11.113 9.021 10.308 0 21.127-8.432 21.127-17.159 0-5.859-4.96-9.13-11.114-9.13m-13.686 21.622c-3.27 0-3.968-2.666-3.968-3.565 0-4.867 16.662-13.392 21.328-13.392 2.387 0 3.968 1.395 3.968 3.565 0 4.96-16.771 13.392-21.328 13.392M1940.3 235.71c0 4.263 3.069 9.021 11.114 9.021 10.308 0 21.126-8.432 21.126-17.159 0-5.859-4.96-9.13-11.114-9.13-9.625 0-21.126 8.138-21.126 17.267M2428.3 260.51c0 4.263 3.069 9.021 11.114 9.021 10.308 0 21.126-8.432 21.126-17.159 0-5.859-4.96-9.13-11.114-9.13-9.625 0-21.126 8.138-21.126 17.268M2202.7 235.71c0 4.263 3.069 9.021 11.114 9.021 10.308 0 21.126-8.432 21.126-17.159 0-5.859-4.96-9.13-11.114-9.13-9.625 0-21.126 8.138-21.126 17.267M2053.2 444.35c0 4.263 3.069 9.021 11.114 9.021 10.308 0 21.126-8.432 21.126-17.159 0-5.859-4.96-9.13-11.114-9.13-9.625 0-21.126 8.138-21.126 17.268M1225.9 394.75c0 4.263 3.069 9.021 11.113 9.021 10.308 0 21.127-8.432 21.127-17.159 0-5.859-4.96-9.13-11.114-9.13-9.626 0-21.126 8.138-21.126 17.267" class="Note"/><path d="M1225.9 369.95c0 4.263 3.069 9.021 11.113 9.021 10.308 0 21.127-8.432 21.127-17.159 0-5.859-4.96-9.13-11.114-9.13-9.626 0-21.126 8.138-21.126 17.267M2053.2 394.75c0 4.263 3.069 9.021 11.114 9.021 10.308 0 21.126-8.432 21.126-17.159 0-5.859-4.96-9.13-11.114-9.13-9.625 0-21.126 8.138-21.126 17.267M1940.3 407.15c0 4.263 3.069 9.021 11.114 9.021 10.308 0 21.126-8.432 21.126-17.159 0-5.859-4.96-9.13-11.114-9.13-9.625 0-21.126 8.138-21.126 17.267M1940.3 469.15c0 4.263 3.069 9.021 11.114 9.021 10.308 0 21.126-8.432 21.126-17.159 0-5.859-4.96-9.13-11.114-9.13-9.625 0-21.126 8.138-21.126 17.267M1516.3 382.35c0 4.263 3.069 9.021 11.113 9.021 10.308 0 21.127-8.432 21.127-17.159 0-5.859-4.96-9.13-11.114-9.13-9.626 0-21.126 8.138-21.126 17.268M2428.3 407.15c0 4.263 3.069 9.021 11.114 9.021 10.308 0 21.126-8.432 21.126-17.159 0-5.859-4.96-9.13-11.114-9.13-9.625 0-21.126 8.138-21.126 17.267M1601.9 394.75c0 4.263 3.069 9.021 11.114 9.021 10.308 0 21.126-8.432 21.126-17.159 0-5.859-4.96-9.13-11.114-9.13-9.625 0-21.126 8.138-21.126 17.267M1225.9 456.75c0 4.263 3.069 9.021 11.113 9.021 10.308 0 21.127-8.432 21.127-17.159 0-5.859-4.96-9.13-11.114-9.13-9.626 0-21.126 8.138-21.126 17.267M1714.7 407.15c0 4.263 3.069 9.021 11.114 9.021 10.308 0 21.126-8.432 21.126-17.159 0-5.859-4.96-9.13-11.114-9.13-9.625 0-21.126 8.138-21.126 17.267M2428.3 456.75c0 4.263 3.069 9.021 11.114 9.021 10.308 0 21.126-8.432 21.126-17.159 0-5.859-4.96-9.13-11.114-9.13-9.625 0-21.126 8.138-21.126 17.267M2541.2 543.55c0 4.263 3.069 9.021 11.114 9.021 10.308 0 21.126-8.432 21.126-17.159 0-5.859-4.96-9.13-11.114-9.13-9.625 0-21.126 8.138-21.126 17.267M1510.2 352.68c-9.626 0-21.126 8.044-21.126 17.267 0 4.263 3.069 9.021 11.113 9.021 10.308 0 21.127-8.432 21.127-17.159 0-5.859-4.96-9.13-11.114-9.13m-13.686 21.623c-3.27 0-3.968-2.666-3.968-3.565 0-4.867 16.662-13.392 21.328-13.392 2.387 0 3.968 1.395 3.968 3.565 0 4.96-16.771 13.392-21.328 13.392M2202.7 407.15c0 4.263 3.069 9.021 11.114 9.021 10.308 0 21.126-8.432 21.126-17.159 0-5.859-4.96-9.13-11.114-9.13-9.625 0-21.126 8.138-21.126 17.267M2675.1 439.48c-9.625 0-21.126 8.044-21.126 17.267 0 4.263 3.069 9.021 11.114 9.021 10.308 0 21.126-8.432 21.126-17.159 0-5.859-4.96-9.13-11.114-9.13m-13.686 21.623c-3.27 0-3.968-2.666-3.968-3.565 0-4.867 16.662-13.392 21.328-13.392 2.387 0 3.968 1.395 3.968 3.565 0 4.96-16.771 13.392-21.328 13.392" class="Note"/><path d="M2202.7 382.35c0 4.263 3.069 9.021 11.114 9.021 10.308 0 21.126-8.432 21.126-17.159 0-5.859-4.96-9.13-11.114-9.13-9.625 0-21.126 8.138-21.126 17.268M2428.3 456.75c0 4.263 3.069 9.021 11.114 9.021 10.308 0 21.126-8.432 21.126-17.159 0-5.859-4.96-9.13-11.114-9.13-9.625 0-21.126 8.138-21.126 17.267M2675.1 489.08c-9.625 0-21.126 8.044-21.126 17.267 0 4.263 3.069 9.021 11.114 9.021 10.308 0 21.126-8.432 21.126-17.159 0-5.859-4.96-9.13-11.114-9.13m-13.686 21.622c-3.27 0-3.968-2.666-3.968-3.565 0-4.867 16.662-13.392 21.328-13.392 2.387 0 3.968 1.395 3.968 3.565 0 4.96-16.771 13.392-21.328 13.392M1510.2 439.48c-9.626 0-21.126 8.044-21.126 17.267 0 4.263 3.069 9.021 11.113 9.021 10.308 0 21.127-8.432 21.127-17.159 0-5.859-4.96-9.13-11.114-9.13m-13.686 21.623c-3.27 0-3.968-2.666-3.968-3.565 0-4.867 16.662-13.392 21.328-13.392 2.387 0 3.968 1.395 3.968 3.565 0 4.96-16.771 13.392-21.328 13.392" class="Note"/><path d="M631.8 245.22c0 6.556 4.96 15.19 18.352 15.19 4.665 0 8.742-1.194 12.307-3.379 5.363-3.766 6.742-10.323 6.742-16.569 0-3.86-.588-8.323-1.58-13.981-.295-1.984-.9-4.96-1.489-8.835 9.719-3.177 16.957-13.299 16.957-23.514 0-14.973-10.617-25.094-25.095-25.094-.992-5.952-1.984-11.811-2.774-17.36 10.416-11.021 17.654-23.421 17.654-39.184 0-9.037-2.774-16.368-4.37-19.948-2.372-5.053-5.255-8.525-7.038-8.525-.697 0-3.766 1.193-7.037 5.053-6.355 7.548-8.137 20.243-8.137 28.566 0 5.363.496 10.23 2.185 21.343-.108.093-5.27 5.348-7.347 7.037-9.036 8.339-21.529 20.429-21.529 40.284 0 18.538 16.167 33.124 34.627 33.124a45.34 45.34 0 0 0 7.828-.697c1.89 9.532 3.084 16.476 3.084 21.73 0 10.324-5.363 15.78-15.376 15.78-2.387 0-4.464-.496-4.666-.496-.092-.109-.294-.202-.294-.295 0-.201.202-.31.496-.31 4.666-.79 9.316-4.758 9.316-11.098 0-5.363-4.061-11.021-11.501-11.021-6.944 0-11.315 5.657-11.315 12.199m20.739-132.43c.899-3.968 5.456-14.384 10.618-14.384 1.488 0 3.86 4.758 3.86 11.702 0 10.323-7.627 18.058-14.478 24.8-.589-3.968-1.085-7.828-1.085-11.997 0-3.674.295-7.053 1.085-10.121m8.727 101.97c-1.984.403-3.86.604-5.75.604-14.183 0-26.289-9.92-26.289-24.908 0-12.09 8.525-22.909 17.267-30.458 1.674-1.488 3.27-2.867 4.759-4.355.883 5.347 1.58 10.013 2.278 14.089-9.036 2.681-15.174 12.199-15.174 21.53 0 6.944 5.456 16.46 13.392 16.46.79 0 1.69-.402 1.69-1.286 0-.899-.993-1.395-2.186-2.185-3.875-2.387-6.06-4.96-6.06-9.827 0-6.045 4.572-10.912 10.322-12.292l5.751 32.628m14.089-18.352c0 7.052-2.883 14.29-9.92 17.174-2.077-11.904-4.758-27.683-5.456-32.054 8.928 0 15.376 6.06 15.376 14.88M644.81 390.49c-7.548 0-13.594 4.356-13.702 4.356-5.844 4.262-9.61 10.819-9.61 18.057 0 7.238 4.154 12.6 11.501 12.6 6.355 0 11.315-4.262 11.315-10.818 0-5.658-4.96-10.308-10.525-10.308-1.194 0-2.279.186-3.178.496-.992.387-2.666 1.38-3.472 2.077.698-4.371 3.674-8.727 7.549-10.82 2.48-1.379 5.658-1.983 9.13-1.983 10.12 0 15.08 8.137 15.08 24.8 0 12.896-8.246 31.45-17.965 40.192-10.323 9.424-20.042 13.888-20.134 13.888 0 0-1.193.682-1.193 1.875 0 .202.093.295.093.496.31.992 1.194 1.194 1.891 1.194l.295-.093c.201 0 11.517-4.666 20.537-11.718 13.888-10.013 29.559-27.667 29.559-45.927 0-17.267-9.316-28.365-27.171-28.365m31.139 12.586c0 2.79 2.185 4.96 4.774 4.96 2.573 0 4.758-2.17 4.758-4.96 0-2.775-2.186-5.053-4.758-5.053-2.589 0-4.774 2.278-4.774 5.053m0 24.506c0 2.774 2.185 5.068 4.774 5.068 2.573 0 4.758-2.294 4.758-5.068 0-2.775-2.186-5.053-4.758-5.053-2.589 0-4.774 2.278-4.774 5.053" class="Clef"/><path d="M722.17 154.16c-4.96 0-7.843 3.069-8.339 3.674l.403-31.854c0-.79-.589-1.379-1.395-1.379h-1.178c-.806 0-1.395.589-1.395 1.38l.496 59.628c0 .791.589 1.38 1.395 1.38.186 0 .589-.093.79-.186 8.526-4.278 17.454-12.4 17.454-22.63 0-5.146-2.372-10.013-8.231-10.013m-8.633 27.977.294-19.344c.202-.899 1.69-3.767 5.657-3.767 3.581 0 3.875 3.364 3.875 5.456 0 8.82-3.27 12.493-9.827 17.654M722.17 449.61c-4.96 0-7.843 3.069-8.339 3.674l.403-31.853c0-.79-.589-1.38-1.395-1.38h-1.178c-.806 0-1.395.589-1.395 1.38l.496 59.629c0 .79.589 1.38 1.395 1.38.186 0 .589-.094.79-.187 8.526-4.278 17.454-12.4 17.454-22.63 0-5.146-2.372-10.013-8.231-10.013m-8.633 27.977.294-19.344c.202-.899 1.69-3.766 5.657-3.766 3.581 0 3.875 3.363 3.875 5.456 0 8.819-3.27 12.493-9.827 17.654" class="KeySig"/><path d="M787.44 151.77c-2.48 1.597-4.263 4.464-4.263 7.642 0 .403 0 .79.094 1.193.496 4.061 3.782 7.239 7.843 7.735h1.085a8.89 8.89 0 0 0 8.928-8.928c0-.698 0-1.38-.186-2.077-.9-4.263-4.774-13.392-21.638-13.392-21.623 0-24.103 17.949-24.103 24.397 0 11.81 1.488 26.598 26.288 26.598 9.827 0 17.469-5.766 17.856-16.384 0-.496-.295-.79-.79-.79h-1.287c-.403 0-.79.402-.79.79-.404 8.246-6.263 13.206-14.99 13.206-8.633 0-12.803-4.666-12.803-13.392v-18.956c0-5.55 2.186-11.904 11.02-11.904 4.666 0 6.743 1.69 7.843 3.379.093.201.093.294.093.496 0 .093 0 .294-.201.387M787.44 422.42c-2.48 1.597-4.263 4.464-4.263 7.642 0 .403 0 .79.094 1.193.496 4.061 3.782 7.239 7.843 7.735h1.085a8.89 8.89 0 0 0 8.928-8.928c0-.698 0-1.38-.186-2.077-.9-4.263-4.774-13.392-21.638-13.392-21.623 0-24.103 17.949-24.103 24.397 0 11.81 1.488 26.598 26.288 26.598 9.827 0 17.469-5.766 17.856-16.384 0-.496-.295-.79-.79-.79h-1.287c-.403 0-.79.402-.79.79-.404 8.246-6.263 13.206-14.99 13.206-8.633 0-12.803-4.666-12.803-13.392v-18.956c0-5.55 2.186-11.904 11.02-11.904 4.666 0 6.743 1.69 7.843 3.379.093.201.093.294.093.496 0 .093 0 .294-.201.387" class="TimeSig"/><path d="M2692.8 49.056c-9.316-10.121-17.562-10.711-22.708-10.711-5.161 0-13.299.589-22.63 10.711-4.851 5.363-8.23 15.965-8.23 21.328 0 1.891.402 3.178 1.394 3.178 2.775 0 1.38-8.541 9.719-16.974 7.332-7.331 17.158-7.44 19.546-7.44h.387c2.387 0 12.214.109 19.546 7.44 8.34 8.432 6.944 16.973 9.719 16.973.992 0 1.395-1.193 1.395-3.177 0-5.363-3.27-16.073-8.138-21.328m-29.558 18.941a6.853 6.853 0 0 0 6.851 6.851c3.767 0 6.836-3.069 6.836-6.851 0-3.767-3.069-6.835-6.836-6.835-3.782 0-6.85 3.069-6.85 6.835M2663.3 532.14c0 3.767 3.069 6.835 6.851 6.835 3.767 0 6.836-3.069 6.836-6.835 0-3.782-3.07-6.851-6.836-6.851a6.853 6.853 0 0 0-6.851 6.851m29.558 18.941c4.867-5.255 8.137-15.965 8.137-21.328 0-1.984-.402-3.178-1.394-3.178-2.775 0-1.38 8.541-9.719 16.973-7.332 7.332-17.158 7.44-19.546 7.44h-.387c-2.387 0-12.214-.108-19.546-7.44-8.34-8.432-6.944-16.973-9.719-16.973-.992 0-1.395 1.287-1.395 3.178 0 5.363 3.38 15.965 8.23 21.328 9.332 10.121 17.47 10.711 22.63 10.711 5.147 0 13.393-.589 22.709-10.711" class="Fermata"/></g><path d="M2421.1 375.96v-1.985h-7.43l5.75-15.937.3.687s.99 2.188 4.34 3.078c.6.188 1.3.188 1.9.188 8.4 0 13.75-11.578 13.75-19.094 0-4.062-2.38-8.922-6.93-8.922-3.06 0-6.14 2.578-7.82 4.266l-.3.297-.19-.407s-2.08-3.75-5.55-4.25h-.29l-.5-.093c-5.64 0-8.22 5.937-9.8 10.484l1.78.891c.39-1.282 1.39-4.453 2.58-6.032.59-.89 1.78-1.687 2.67-1.89h.39c.3 0 .6 0 .8.203.39.297.5.797.5 1.484 0 2.375-1.78 6.735-2.28 7.719l-9.8 27.328h-6.05v1.985h22.18m2.78-17.329c-.21 0-.6 0-.8-.093-1.48-.594-1.87-2.375-1.87-4.266 0-3.062 1.07-6.625 1.18-6.828.69-3.063 4.46-10 8.32-10 .2 0 .5 0 .68.094 1.19.297 1.39 2.187 1.39 3.172 0 4.75-3.47 15.64-7.82 17.718-.3.203-.79.203-1.08.203" class="Dynamic"/><g fill-rule="evenodd"><path d="M2232.4 76.536h340.96v12.4H2232.4v-12.4M1744.4 76.536h340.96v12.4H1744.4v-12.4M1255.7 51.736h378.43v12.4H1255.7v-12.4M880.48 39.316l228.13 18.6v12.441l-228.13-18.6V39.316M1546.1 309.97l88.04 6.2v12.43l-88.04-6.2v-12.43M1940.3 520.75l115.3-12.4v12.472l-115.3 12.4V520.75M2428.3 582.75l115.31 12.4v12.472l-115.31-12.4V582.75" class="Beam"/></g><path d="m869.66 292.58-13.375.422v3.047h.906c3.719.062 3.891.312 3.828 5.828v13.672c-.047.844-.109 1.203-.359 1.562-.406.547-1.547.782-4.141.782h-.234v3.062h20.047v-3.062h-1.328c-4.016-.063-4.5-.36-4.5-2.578v-4.204c.25-8.875 2.765-14.328 7.078-15.468-.781 1.078-1.016 1.734-1.016 2.812 0 2.578 1.922 4.438 4.5 4.438 2.938 0 5.156-2.219 5.156-5.157 0-3.484-2.75-6.062-6.593-6.062-4.625 0-7.86 2.641-9.969 8.156v-7.25m28.469-15.844c-2.938 0-5.344 2.407-5.344 5.282 0 2.937 2.406 5.343 5.219 5.343 3.062 0 5.406-2.343 5.406-5.343 0-2.875-2.406-5.282-5.281-5.282m4.859 15.844-14.094.422v3.047h.828c3.672.062 3.844.312 3.844 5.641v13.859c-.062.844-.125 1.203-.359 1.562-.36.547-1.563.782-4.078.782h-.235v3.062h18.766v-3.062h-.359c-3.782-.063-4.313-.422-4.313-2.578V292.58m29.078 0h-7.797v-11.89h-3.781c-.969 7.687-4.203 11.703-9.906 12.359v3.125h4.265v14.344c0 4.922.235 6.359 1.266 8.031 1.25 2.109 3.828 3.312 7.25 3.312s6.125-1.14 7.75-3.25c1.5-1.968 2.391-4.796 2.391-7.437 0-.297 0-.781-.063-1.375h-3.172c.063 4.5-1.328 6.953-3.781 6.953-1.734 0-2.219-1.078-2.219-5.156v-15.422h7.797v-3.594m12.485 18a5.629 5.629 0 0 0-5.641 5.641c0 3.047 2.516 5.64 5.578 5.64 3.172 0 5.703-2.531 5.703-5.64a5.638 5.638 0 0 0-5.64-5.641" class="GradualTempoChangeSegment"/><path d="M568.47 304.86c6.462-7.05 19.048-21.44 19.048-48.08 0-33.691-14.047-67.728-14.047-88.763 0-22.595 12.586-43.688 13.316-44.382v-.751c0-.405 0-.752-.337-1.098-.393 0-1.124 0-1.461.693-.337.405-19.778 20.342-19.778 50.68 0 32.535 12.586 55.477 12.586 98.01 0 8.147-3.259 21.092-12.249 32.592-.337 0-.337.694-.674 1.098 0 .347.337.751.674 1.098 8.99 11.442 12.249 24.387 12.249 32.535 0 42.532-12.586 65.475-12.586 98.01 0 29.991 19.441 50.333 19.778 50.68.337.752 1.068 1.098 1.46.752.338-.347.675-.752.338-1.098v-.752c-.73-.75-13.316-21.844-13.316-44.382 0-21.093 14.047-55.13 14.047-88.763 0-26.987-12.586-41.088-19.048-48.08" class="Bracket"/></svg>