<svg xmlns="http://www.w3.org/2000/svg" width="277.76" height="195.18" viewBox="0 0 73.49 51.643">
  <path fill="#0f136c" fill-rule="evenodd" d="M37.448.05c14.835.114 27.627-.921 32.19 4.089 4.563 5.01 3.68 14.775 3.79 21.429s.512 16.835-3.79 21.95c-4.302 5.115-20.571 4.02-32.19 4.038-11.619.019-29.878.675-33.825-4.387S-.003 32.784.083 25.568c.086-7.216-1.138-16.41 3.54-21.18S22.612-.063 37.448.052z"/>
  <path fill="#fff" d="M31.706 37.213a5.723 5.723 0 0 0-.582-.1l-.481-.064V14.783l.227-.05c.766-.17 3.25-.36 4.694-.36h1.69l-.282.28c-.538.533-.556.666-.556 4.13v3.2l-.228-.074c-.643-.21-1.715-.004-2.424.466-1.886 1.249-1.33 3.47.869 3.47 1.102 0 2.087-.57 2.532-1.461l.263-.53v-2.952c0-2.683.017-2.966.178-3.11.267-.24 4.244-2.406 4.416-2.406.472 0 .47-.005.47 2.334v2.21l-.328-.094c-2.003-.575-4.226 1.348-3.4 2.94.338.651.888.916 1.905.916 1.276 0 2.24-.593 2.681-1.648.126-.302.155-.876.155-3.064v-2.693l.22.153c.394.276 1.098 1.21 1.459 1.934.664 1.334.947 3.849.644 5.723-.548 3.396-2.894 5.412-6.71 5.767-.65.06-1.353.088-1.562.062a40.5 40.5 0 0 0-.963-.103l-.583-.056v7.273l-.64.112c-.576.1-3.412.148-3.664.061z"/>
</svg>
