<svg xmlns="http://www.w3.org/2000/svg" viewBox="0 0 128 118.58">
  <path fill="#1e1e1e" fill-rule="evenodd" d="M66.085 1.48 54.714 64.556c-5.959-.413-19.357-6.448-37.816.952C4.523 72.088-1.522 81.635.327 94.885c2.188 5.916 1.392 18.935 30.145 23.171 23.149 2.999 29.44-7.381 34.593-18.666 5.405-14.96 4.523-40.814 7.683-60.426 1.596-7.164 5.825-17.198 21.914-17.959 8.861.552 17.458 9.963 18.947 15.203.919 7.27-1.28 13.116-4.032 15.978-4.596 2.98-9.173 4.728-13.682 2.171-2.094-2.554-5.35-4.45-2.999-9.522 1.161-1.697 2.21-3.448 6.532-3.605 2.313-.86 3.393-2.555 2.186-5.799-2.137-1.943-3.596-4.302-9.455-3.967-6.566 1.16-8.857 5.441-9.896 10.511-1.233 7.343-.339 18.249 8.108 23.882 6.329 3.188 13.673 3.745 22.744-.174 7.24-3.924 9.685-9.908 12.609-15.686 2-5.631 5.257-19.185-3.567-26.774-6.347-5.969-11.488-12.174-27.07-14.48-4.56-.182-9.668.186-16.734 2.52 1.972-4.736 1.38-7.86-1.776-9.372C75.025.866 73.55.405 72.087.034c-5.656-.21-5.285.72-6 1.446z"/>
</svg>
