<svg xmlns="http://www.w3.org/2000/svg" version="1.2" viewBox="0 0 3500 656.92"><g fill="none" stroke="#000" stroke-linejoin="bevel" stroke-width="2.73"><path d="M596.536 141.65H2935.07M596.536 166.45H2935.07M596.536 191.25H2935.07M596.536 216.05H2935.07M596.536 240.85H2935.07M596.536 450.98H2935.07M596.536 475.78H2935.07M596.536 500.58H2935.07M596.536 525.38H2935.07M596.536 550.18H2935.07" class="StaffLines"/></g><g fill-rule="evenodd" stroke="#000" stroke-linecap="round" stroke-linejoin="round" stroke-width="1.74"><path d="M1941.4 182.07c9.01 19.662 37.15 29.21 56.27 19.096-21.36 16.69-49.49 7.142-56.27-19.096M1019.8 70.698c232.23-99.366 1312.1-90.495 1542.6 12.674-230.62-96.225-1310.5-105.1-1542.6-12.674M1570.6 403.85c92.23-62.904 516.48-54.224 606.06 12.4-89.73-59.682-513.97-68.362-606.06-12.4M1024.6 438.59c46.476-50.463 203.26-71.306 261.3-34.737-57.131-29.685-213.91-8.843-261.3 34.737M2390.2 403.85c58.03-41.393 164.78-35.193 213.51 12.4-49.13-40.66-155.89-46.86-213.51-12.4" class="SlurSegment"/></g><g fill="none" stroke="#000" stroke-linejoin="bevel"><path stroke-width="4.46" d="M598.768 140.28v310.7M2910.07 140.28v310.7" class="BarLine"/><path stroke-width="13.64" d="M2928.27 140.28v310.7" class="BarLine"/><g stroke-width="4.46"><path d="M2126.07 140.28v310.7M598.768 449.61v101.93M2910.07 449.61v101.93" class="BarLine"/></g><path stroke-width="13.64" d="M2928.27 449.61v101.93" class="BarLine"/><path stroke-width="4.46" d="M2126.07 449.61v101.93" class="BarLine"/><path stroke-width="2.17" d="m1941.37 144.88 29.6-24.84" class="StemSlash"/></g><g stroke-width=".992"><path d="M2566.7 205.97s-.698.589-1.395 1.38c-.294.31-.388.697-.388.992 0 .31.094.495.295.697.202.202.496.496 1.085 1.1.202.186.31.388.31.59 0 .402-.31.588-.31.588s-5.456 6.355-6.34 7.347c-.79 1.085-1.1 2.186-1.1 3.178 0 2.077 1.194 3.968 2.092 4.758l4.759 4.759c.294.294.496.403.79.403.497 0 .9-.403.9-.403s.697-.589 1.379-1.38c.31-.31.403-.604.403-.899s-.093-.496-.294-.697-.497-.496-1.101-1.085c-.186-.202-.294-.403-.294-.605 0-.387.294-.682.294-.682s5.363-6.355 6.262-7.347c.79-1.085 1.085-2.185 1.085-3.177 0-2.077-1.194-3.968-2.077-4.759l-4.774-4.758c-.294-.295-.589-.403-.79-.403-.497 0-.791.403-.791.403" class="Arpeggio"/><path d="M2566.7 184.15s-.698.589-1.395 1.38c-.294.31-.388.697-.388.992 0 .31.094.496.295.697.202.202.496.496 1.085 1.1.202.186.31.388.31.59 0 .402-.31.588-.31.588s-5.456 6.355-6.34 7.347c-.79 1.085-1.1 2.186-1.1 3.178 0 2.077 1.194 3.968 2.092 4.758l4.759 4.759c.294.294.496.403.79.403.497 0 .9-.403.9-.403s.697-.589 1.379-1.38c.31-.31.403-.604.403-.899s-.093-.496-.294-.697-.497-.496-1.101-1.085c-.186-.202-.294-.403-.294-.605 0-.387.294-.682.294-.682s5.363-6.355 6.262-7.347c.79-1.085 1.085-2.185 1.085-3.177 0-2.077-1.194-3.968-2.077-4.759l-4.774-4.758c-.294-.295-.589-.403-.79-.403-.497 0-.791.403-.791.403" class="Arpeggio"/><path d="M2566.7 162.33s-.698.589-1.395 1.38c-.294.31-.388.697-.388.992 0 .31.094.496.295.697.202.202.496.496 1.085 1.1.202.186.31.388.31.59 0 .402-.31.588-.31.588s-5.456 6.355-6.34 7.347c-.79 1.085-1.1 2.186-1.1 3.178 0 2.077 1.194 3.968 2.092 4.758l4.759 4.759c.294.294.496.403.79.403.497 0 .9-.403.9-.403s.697-.589 1.379-1.38c.31-.31.403-.604.403-.899s-.093-.496-.294-.697-.497-.496-1.101-1.085c-.186-.202-.294-.403-.294-.605 0-.387.294-.682.294-.682s5.363-6.355 6.262-7.347c.79-1.085 1.085-2.185 1.085-3.177 0-2.077-1.194-3.968-2.077-4.759l-4.774-4.758c-.294-.295-.589-.403-.79-.403-.497 0-.791.403-.791.403" class="Arpeggio"/><path d="M2566.7 140.5s-.698.589-1.395 1.38c-.294.31-.388.697-.388.992 0 .31.094.495.295.697.202.202.496.496 1.085 1.1.202.186.31.388.31.59 0 .402-.31.588-.31.588s-5.456 6.355-6.34 7.347c-.79 1.085-1.1 2.186-1.1 3.178 0 2.077 1.194 3.968 2.092 4.758l4.759 4.759c.294.294.496.403.79.403.497 0 .9-.403.9-.403s.697-.589 1.379-1.38c.31-.31.403-.604.403-.899s-.093-.496-.294-.697-.497-.496-1.101-1.085c-.186-.202-.294-.403-.294-.605 0-.387.294-.682.294-.682s5.363-6.355 6.262-7.347c.79-1.085 1.085-2.185 1.085-3.177 0-2.077-1.194-3.968-2.077-4.759l-4.774-4.758c-.294-.295-.589-.403-.79-.403-.497 0-.791.403-.791.403" class="Arpeggio"/><path d="M2566.7 118.68s-.698.589-1.395 1.38c-.294.31-.388.697-.388.991 0 .31.094.497.295.698.202.202.496.496 1.085 1.1.202.186.31.388.31.59 0 .402-.31.588-.31.588s-5.456 6.355-6.34 7.347c-.79 1.085-1.1 2.186-1.1 3.178 0 2.077 1.194 3.968 2.092 4.758l4.759 4.759c.294.294.496.403.79.403.497 0 .9-.403.9-.403s.697-.589 1.379-1.38c.31-.31.403-.604.403-.899s-.093-.496-.294-.697-.497-.496-1.101-1.085c-.186-.202-.294-.403-.294-.605 0-.387.294-.682.294-.682s5.363-6.355 6.262-7.347c.79-1.085 1.085-2.185 1.085-3.177 0-2.077-1.194-3.968-2.077-4.759l-4.774-4.758c-.294-.295-.589-.403-.79-.403-.497 0-.791.403-.791.403M2566.7 537.13s-.698.589-1.395 1.38c-.294.31-.388.697-.388.992 0 .31.094.496.295.697.202.202.496.496 1.085 1.1.202.186.31.388.31.59 0 .402-.31.588-.31.588s-5.456 6.355-6.34 7.347c-.79 1.085-1.1 2.186-1.1 3.178 0 2.077 1.194 3.968 2.092 4.758l4.759 4.759c.294.294.496.403.79.403.497 0 .9-.403.9-.403s.697-.589 1.379-1.38c.31-.31.403-.604.403-.899s-.093-.496-.294-.697-.497-.496-1.101-1.085c-.186-.202-.294-.403-.294-.605 0-.387.294-.682.294-.682s5.363-6.355 6.262-7.347c.79-1.085 1.085-2.185 1.085-3.177 0-2.077-1.194-3.968-2.077-4.759l-4.774-4.758c-.294-.295-.589-.403-.79-.403-.497 0-.791.403-.791.403" class="Arpeggio"/><path d="M2566.7 515.3s-.698.589-1.395 1.38c-.294.31-.388.697-.388.992 0 .31.094.495.295.697.202.202.496.496 1.085 1.1.202.186.31.388.31.59 0 .402-.31.588-.31.588s-5.456 6.355-6.34 7.347c-.79 1.085-1.1 2.186-1.1 3.178 0 2.077 1.194 3.968 2.092 4.758l4.759 4.759c.294.294.496.403.79.403.497 0 .9-.403.9-.403s.697-.589 1.379-1.38c.31-.31.403-.604.403-.899s-.093-.496-.294-.697-.497-.496-1.101-1.085c-.186-.202-.294-.403-.294-.605 0-.387.294-.682.294-.682s5.363-6.355 6.262-7.347c.79-1.085 1.085-2.185 1.085-3.177 0-2.077-1.194-3.968-2.077-4.759l-4.774-4.758c-.294-.295-.589-.403-.79-.403-.497 0-.791.403-.791.403" class="Arpeggio"/><path d="M2566.7 493.48s-.698.589-1.395 1.38c-.294.31-.388.697-.388.992 0 .31.094.496.295.697.202.202.496.496 1.085 1.1.202.186.31.388.31.59 0 .402-.31.588-.31.588s-5.456 6.355-6.34 7.347c-.79 1.085-1.1 2.186-1.1 3.178 0 2.077 1.194 3.968 2.092 4.758l4.759 4.759c.294.294.496.403.79.403.497 0 .9-.403.9-.403s.697-.589 1.379-1.38c.31-.31.403-.604.403-.899s-.093-.496-.294-.697-.497-.496-1.101-1.085c-.186-.202-.294-.403-.294-.605 0-.387.294-.682.294-.682s5.363-6.355 6.262-7.347c.79-1.085 1.085-2.185 1.085-3.177 0-2.077-1.194-3.968-2.077-4.759l-4.774-4.758c-.294-.295-.589-.403-.79-.403-.497 0-.791.403-.791.403" class="Arpeggio"/><path d="M2566.7 471.65s-.698.589-1.395 1.38c-.294.31-.388.697-.388.992 0 .31.094.496.295.697.202.202.496.496 1.085 1.1.202.186.31.388.31.59 0 .402-.31.588-.31.588s-5.456 6.355-6.34 7.347c-.79 1.085-1.1 2.186-1.1 3.178 0 2.077 1.194 3.968 2.092 4.758l4.759 4.759c.294.294.496.403.79.403.497 0 .9-.403.9-.403s.697-.589 1.379-1.38c.31-.31.403-.604.403-.899s-.093-.496-.294-.697-.497-.496-1.101-1.085c-.186-.202-.294-.403-.294-.605 0-.387.294-.682.294-.682s5.363-6.355 6.262-7.347c.79-1.085 1.085-2.185 1.085-3.177 0-2.077-1.194-3.968-2.077-4.759l-4.774-4.758c-.294-.295-.589-.403-.79-.403-.497 0-.791.403-.791.403" class="Arpeggio"/><path d="M2566.7 449.83s-.698.589-1.395 1.38c-.294.31-.388.697-.388.992 0 .31.094.496.295.697.202.202.496.496 1.085 1.1.202.186.31.388.31.59 0 .402-.31.588-.31.588s-5.456 6.355-6.34 7.347c-.79 1.085-1.1 2.186-1.1 3.178 0 2.077 1.194 3.968 2.092 4.758l4.759 4.759c.294.294.496.403.79.403.497 0 .9-.403.9-.403s.697-.589 1.379-1.38c.31-.31.403-.604.403-.899s-.093-.496-.294-.697-.497-.496-1.101-1.085c-.186-.202-.294-.403-.294-.605 0-.387.294-.682.294-.682s5.363-6.355 6.262-7.347c.79-1.085 1.085-2.185 1.085-3.177 0-2.077-1.194-3.968-2.077-4.759l-4.774-4.758c-.294-.295-.589-.403-.79-.403-.497 0-.791.403-.791.403" class="Arpeggio"/><path d="M2566.7 428.01s-.698.589-1.395 1.38c-.294.31-.388.697-.388.992 0 .31.094.496.295.697.202.202.496.496 1.085 1.1.202.186.31.388.31.59 0 .402-.31.588-.31.588s-5.456 6.355-6.34 7.347c-.79 1.085-1.1 2.186-1.1 3.178 0 2.077 1.194 3.968 2.092 4.758l4.759 4.759c.294.294.496.403.79.403.497 0 .9-.403.9-.403s.697-.589 1.379-1.38c.31-.31.403-.604.403-.899s-.093-.496-.294-.697-.497-.496-1.101-1.085c-.186-.202-.294-.403-.294-.605 0-.387.294-.682.294-.682s5.363-6.355 6.262-7.347c.79-1.085 1.085-2.185 1.085-3.177 0-2.077-1.194-3.968-2.077-4.759l-4.774-4.758c-.294-.295-.589-.403-.79-.403-.497 0-.791.403-.791.403" class="Arpeggio"/></g><g fill="none" stroke="#000" stroke-linejoin="bevel"><g stroke-width="3.97"><path d="M1545.77 426.18h49.6M1261.13 426.18h49.59M2365.37 426.18h49.6" class="LedgerLine"/></g><g stroke-width="2.48"><path d="M1158.46 174.88V83.77M1870.17 187.28V69.32M2588.77 133.41v144.64M1300.8 162.48V81.72" class="Stem"/></g><path stroke-width="1.74" d="M1951.77 163.67v-53.51" class="Stem"/><g stroke-width="2.48"><path d="M2405.07 162.48v-57.96M1443.14 150.08V79.66M2012.47 174.88V67.26M1585.47 187.28V73.43M2191.57 187.28v-70.5M1016.12 162.48V85.83M1727.87 199.68V71.37M1413.39 220.21v70.2M1128.71 207.81v74.38M2161.77 220.21v64.07M1555.77 232.61v57.84M986.37 195.41v82.67M2375.27 207.81v82.6M2375.27 430.34v138.33M1128.71 492.34v104.34M2161.77 442.74v107.54M986.37 541.94v70.1M2588.77 442.74v169.44M1271.05 430.34v150.97M1555.77 430.34v144.64M1016.12 533.81v-82.83" class="Stem"/></g></g><g stroke-width=".992"><path d="M1127.5 183.01c0 4.263 3.069 9.021 11.113 9.021 10.308 0 21.127-8.432 21.127-17.159 0-5.859-4.96-9.13-11.114-9.13-9.626 0-21.126 8.138-21.126 17.268M1269.8 170.61c0 4.263 3.069 9.021 11.113 9.021 10.308 0 21.127-8.432 21.127-17.159 0-5.859-4.96-9.13-11.114-9.13-9.626 0-21.126 8.138-21.126 17.268M1412.2 158.21c0 4.263 3.069 9.021 11.113 9.021 10.308 0 21.127-8.432 21.127-17.159 0-5.859-4.96-9.13-11.114-9.13-9.626 0-21.126 8.138-21.126 17.267M1554.5 195.41c0 4.263 3.069 9.021 11.113 9.021 10.308 0 21.126-8.432 21.126-17.159 0-5.859-4.96-9.13-11.114-9.13-9.625 0-21.126 8.138-21.126 17.267M1696.8 207.81c0 4.263 3.069 9.021 11.114 9.021 10.308 0 21.126-8.432 21.126-17.159 0-5.859-4.96-9.13-11.114-9.13-9.625 0-21.126 8.138-21.126 17.268M1839.2 195.41c0 4.263 3.069 9.021 11.114 9.021 10.308 0 21.126-8.432 21.126-17.159 0-5.859-4.96-9.13-11.114-9.13-9.625 0-21.126 8.138-21.126 17.267M1981.5 183.01c0 4.263 3.069 9.021 11.114 9.021 10.308 0 21.126-8.432 21.126-17.159 0-5.859-4.96-9.13-11.114-9.13-9.625 0-21.126 8.138-21.126 17.268" class="Note"/></g><path d="M1930.1 169.36c0 2.984 2.148 6.315 7.78 6.315 7.215 0 14.787-5.903 14.787-12.011 0-4.102-3.471-6.39-7.779-6.39-6.738 0-14.789 5.695-14.789 12.086" class="Note"/><g stroke-width=".992"><path d="M2160.6 195.41c0 4.263 3.069 9.021 11.114 9.021 10.308 0 21.126-8.432 21.126-17.159 0-5.859-4.96-9.13-11.114-9.13-9.625 0-21.126 8.138-21.126 17.267M2374.1 170.61c0 4.263 3.069 9.021 11.114 9.021 10.308 0 21.126-8.432 21.126-17.159 0-5.859-4.96-9.13-11.114-9.13-9.625 0-21.126 8.138-21.126 17.268M2587.6 220.21c0 4.263 3.069 9.021 11.114 9.021 10.308 0 21.126-8.432 21.126-17.159 0-5.859-4.96-9.13-11.114-9.13-9.625 0-21.126 8.138-21.126 17.267" class="Note"/><path d="M2587.6 195.41c0 4.263 3.069 9.021 11.114 9.021 10.308 0 21.126-8.432 21.126-17.159 0-5.859-4.96-9.13-11.114-9.13-9.625 0-21.126 8.138-21.126 17.267" class="Note"/><path d="M2587.6 170.61c0 4.263 3.069 9.021 11.114 9.021 10.308 0 21.126-8.432 21.126-17.159 0-5.859-4.96-9.13-11.114-9.13-9.625 0-21.126 8.138-21.126 17.268M2587.6 133.41c0 4.263 3.069 9.021 11.114 9.021 10.308 0 21.126-8.432 21.126-17.159 0-5.859-4.96-9.13-11.114-9.13-9.625 0-21.126 8.138-21.126 17.267M985.13 170.61c0 4.263 3.069 9.021 11.113 9.021 10.308 0 21.127-8.432 21.127-17.159 0-5.859-4.96-9.13-11.114-9.13-9.626 0-21.127 8.138-21.127 17.268M1554.5 232.61c0 4.263 3.069 9.021 11.113 9.021 10.308 0 21.126-8.432 21.126-17.159 0-5.859-4.96-9.13-11.114-9.13-9.625 0-21.126 8.138-21.126 17.268M2374.1 232.61c0 4.263 3.069 9.021 11.114 9.021 10.308 0 21.126-8.432 21.126-17.159 0-5.859-4.96-9.13-11.114-9.13-9.625 0-21.126 8.138-21.126 17.268M2160.6 220.21c0 4.263 3.069 9.021 11.114 9.021 10.308 0 21.126-8.432 21.126-17.159 0-5.859-4.96-9.13-11.114-9.13-9.625 0-21.126 8.138-21.126 17.267" class="Note"/><path d="M2374.1 207.81c0 4.263 3.069 9.021 11.114 9.021 10.308 0 21.126-8.432 21.126-17.159 0-5.859-4.96-9.13-11.114-9.13-9.625 0-21.126 8.138-21.126 17.268M1412.2 220.21c0 4.263 3.069 9.021 11.113 9.021 10.308 0 21.127-8.432 21.127-17.159 0-5.859-4.96-9.13-11.114-9.13-9.626 0-21.126 8.138-21.126 17.267M1127.5 207.81c0 4.263 3.069 9.021 11.113 9.021 10.308 0 21.127-8.432 21.127-17.159 0-5.859-4.96-9.13-11.114-9.13-9.626 0-21.126 8.138-21.126 17.268M985.13 195.41c0 4.263 3.069 9.021 11.113 9.021 10.308 0 21.127-8.432 21.127-17.159 0-5.859-4.96-9.13-11.114-9.13-9.626 0-21.127 8.138-21.127 17.267M2160.6 467.54c0 4.263 3.069 9.021 11.114 9.021 10.308 0 21.126-8.432 21.126-17.159 0-5.859-4.96-9.13-11.114-9.13-9.625 0-21.126 8.138-21.126 17.268M2374.1 430.34c0 4.263 3.069 9.021 11.114 9.021 10.308 0 21.126-8.432 21.126-17.159 0-5.859-4.96-9.13-11.114-9.13-9.625 0-21.126 8.138-21.126 17.267M985.13 541.94c0 4.263 3.069 9.021 11.113 9.021 10.308 0 21.127-8.432 21.127-17.159 0-5.859-4.96-9.13-11.114-9.13-9.626 0-21.127 8.138-21.127 17.267M1269.8 430.34c0 4.263 3.069 9.021 11.113 9.021 10.308 0 21.127-8.432 21.127-17.159 0-5.859-4.96-9.13-11.114-9.13-9.626 0-21.126 8.138-21.126 17.267" class="Note"/><path d="M2160.6 442.74c0 4.263 3.069 9.021 11.114 9.021 10.308 0 21.126-8.432 21.126-17.159 0-5.859-4.96-9.13-11.114-9.13-9.625 0-21.126 8.138-21.126 17.268M1554.5 430.34c0 4.263 3.069 9.021 11.113 9.021 10.308 0 21.126-8.432 21.126-17.159 0-5.859-4.96-9.13-11.114-9.13-9.625 0-21.126 8.138-21.126 17.267M1554.5 504.74c0 4.263 3.069 9.021 11.113 9.021 10.308 0 21.126-8.432 21.126-17.159 0-5.859-4.96-9.13-11.114-9.13-9.625 0-21.126 8.138-21.126 17.267M2587.6 554.34c0 4.263 3.069 9.021 11.114 9.021 10.308 0 21.126-8.432 21.126-17.159 0-5.859-4.96-9.13-11.114-9.13-9.625 0-21.126 8.138-21.126 17.267M2587.6 504.74c0 4.263 3.069 9.021 11.114 9.021 10.308 0 21.126-8.432 21.126-17.159 0-5.859-4.96-9.13-11.114-9.13-9.625 0-21.126 8.138-21.126 17.267M2587.6 442.74c0 4.263 3.069 9.021 11.114 9.021 10.308 0 21.126-8.432 21.126-17.159 0-5.859-4.96-9.13-11.114-9.13-9.625 0-21.126 8.138-21.126 17.268M1127.5 492.34c0 4.263 3.069 9.021 11.113 9.021 10.308 0 21.127-8.432 21.127-17.159 0-5.859-4.96-9.13-11.114-9.13-9.626 0-21.126 8.138-21.126 17.267M2374.1 504.74c0 4.263 3.069 9.021 11.114 9.021 10.308 0 21.126-8.432 21.126-17.159 0-5.859-4.96-9.13-11.114-9.13-9.625 0-21.126 8.138-21.126 17.267M985.13 541.94c0 4.263 3.069 9.021 11.113 9.021 10.308 0 21.127-8.432 21.127-17.159 0-5.859-4.96-9.13-11.114-9.13-9.626 0-21.127 8.138-21.127 17.267" class="Note"/><path d="M631.8 266.93c0 6.556 4.96 15.19 18.352 15.19 4.665 0 8.742-1.194 12.307-3.379 5.363-3.766 6.742-10.323 6.742-16.569 0-3.86-.588-8.324-1.58-13.981-.295-1.984-.9-4.96-1.489-8.835 9.719-3.178 16.957-13.299 16.957-23.514 0-14.973-10.617-25.094-25.095-25.094-.992-5.952-1.984-11.811-2.774-17.36 10.416-11.021 17.654-23.421 17.654-39.184 0-9.037-2.774-16.368-4.37-19.948-2.372-5.053-5.255-8.525-7.038-8.525-.697 0-3.766 1.193-7.037 5.053-6.355 7.548-8.137 20.243-8.137 28.566 0 5.363.496 10.23 2.185 21.343-.108.093-5.27 5.347-7.347 7.037-9.036 8.339-21.529 20.429-21.529 40.284 0 18.538 16.167 33.124 34.627 33.124a45.34 45.34 0 0 0 7.828-.697c1.89 9.532 3.084 16.476 3.084 21.73 0 10.324-5.363 15.78-15.376 15.78-2.387 0-4.464-.496-4.666-.496-.092-.109-.294-.202-.294-.295 0-.201.202-.31.496-.31 4.666-.79 9.316-4.759 9.316-11.098 0-5.363-4.061-11.021-11.501-11.021-6.944 0-11.315 5.657-11.315 12.199m20.739-132.43c.899-3.968 5.456-14.384 10.618-14.384 1.488 0 3.86 4.758 3.86 11.702 0 10.323-7.627 18.058-14.478 24.8-.589-3.968-1.085-7.828-1.085-11.997 0-3.674.295-7.053 1.085-10.121m8.727 101.97c-1.984.403-3.86.604-5.75.604-14.183 0-26.289-9.92-26.289-24.908 0-12.09 8.525-22.909 17.267-30.458 1.674-1.488 3.27-2.867 4.759-4.355.883 5.347 1.58 10.013 2.278 14.089-9.036 2.681-15.174 12.199-15.174 21.53 0 6.944 5.456 16.46 13.392 16.46.79 0 1.69-.402 1.69-1.286 0-.899-.993-1.395-2.186-2.185-3.875-2.387-6.06-4.96-6.06-9.827 0-6.045 4.572-10.912 10.322-12.292l5.751 32.628m14.089-18.352c0 7.052-2.883 14.29-9.92 17.174-2.077-11.904-4.758-27.683-5.456-32.054 8.928 0 15.376 6.06 15.376 14.88M644.81 450.88c-7.548 0-13.594 4.356-13.702 4.356-5.844 4.262-9.61 10.819-9.61 18.057 0 7.238 4.154 12.6 11.501 12.6 6.355 0 11.315-4.262 11.315-10.818 0-5.658-4.96-10.308-10.525-10.308-1.194 0-2.279.186-3.178.496-.992.387-2.666 1.38-3.472 2.077.698-4.371 3.674-8.727 7.549-10.82 2.48-1.379 5.658-1.983 9.13-1.983 10.12 0 15.08 8.137 15.08 24.8 0 12.896-8.246 31.45-17.965 40.192-10.323 9.424-20.042 13.888-20.134 13.888 0 0-1.193.682-1.193 1.875 0 .202.093.295.093.496.31.992 1.194 1.194 1.891 1.194l.295-.093c.201 0 11.517-4.666 20.537-11.718 13.888-10.013 29.559-27.667 29.559-45.927 0-17.267-9.316-28.365-27.171-28.365m31.139 12.586c0 2.79 2.185 4.96 4.774 4.96 2.573 0 4.758-2.17 4.758-4.96 0-2.775-2.186-5.053-4.758-5.053-2.589 0-4.774 2.278-4.774 5.053m0 24.506c0 2.774 2.185 5.068 4.774 5.068 2.573 0 4.758-2.294 4.758-5.068 0-2.775-2.186-5.053-4.758-5.053-2.589 0-4.774 2.278-4.774 5.053" class="Clef"/><path d="M722.17 175.87c-4.96 0-7.843 3.069-8.339 3.674l.403-31.854c0-.79-.589-1.379-1.395-1.379h-1.178c-.806 0-1.395.589-1.395 1.38l.496 59.628c0 .791.589 1.38 1.395 1.38.186 0 .589-.093.79-.186 8.526-4.278 17.454-12.4 17.454-22.63 0-5.146-2.372-10.013-8.231-10.013m-8.633 27.977.294-19.344c.202-.899 1.69-3.766 5.657-3.766 3.581 0 3.875 3.363 3.875 5.455 0 8.82-3.27 12.493-9.827 17.654M749.75 138.67c-4.96 0-7.843 3.069-8.339 3.674l.403-31.854c0-.79-.589-1.379-1.395-1.379h-1.178c-.806 0-1.395.589-1.395 1.38l.496 59.628c0 .791.589 1.38 1.395 1.38.186 0 .589-.093.79-.186 8.526-4.278 17.454-12.4 17.454-22.63 0-5.146-2.372-10.013-8.231-10.013m-8.633 27.977.294-19.344c.202-.899 1.69-3.767 5.657-3.767 3.581 0 3.875 3.364 3.875 5.456 0 8.82-3.27 12.493-9.827 17.654M777.32 188.27c-4.96 0-7.843 3.069-8.339 3.674l.403-31.853c0-.79-.589-1.38-1.395-1.38h-1.178c-.806 0-1.395.589-1.395 1.38l.496 59.628c0 .791.589 1.38 1.395 1.38.186 0 .589-.093.79-.186 8.526-4.278 17.454-12.4 17.454-22.63 0-5.146-2.372-10.013-8.231-10.013m-8.633 27.977.294-19.344c.202-.899 1.69-3.766 5.657-3.766 3.581 0 3.875 3.363 3.875 5.455 0 8.82-3.27 12.493-9.827 17.654M804.88 151.07c-4.96 0-7.843 3.069-8.339 3.674l.403-31.854c0-.79-.589-1.379-1.395-1.379h-1.178c-.806 0-1.395.589-1.395 1.38l.496 59.628c0 .791.589 1.38 1.395 1.38.186 0 .589-.093.79-.186 8.526-4.278 17.454-12.4 17.454-22.63 0-5.146-2.372-10.013-8.231-10.013m-8.633 27.977.294-19.344c.202-.899 1.69-3.767 5.657-3.767 3.581 0 3.875 3.364 3.875 5.456 0 8.82-3.27 12.493-9.827 17.654M832.46 200.67c-4.96 0-7.843 3.069-8.339 3.674l.403-31.854c0-.79-.589-1.379-1.395-1.379h-1.178c-.806 0-1.395.589-1.395 1.38l.496 59.628c0 .791.589 1.38 1.395 1.38.186 0 .589-.093.79-.186 8.526-4.278 17.454-12.4 17.454-22.63 0-5.146-2.372-10.013-8.231-10.013m-8.633 27.977.294-19.344c.202-.899 1.69-3.767 5.657-3.767 3.581 0 3.875 3.364 3.875 5.456 0 8.82-3.27 12.493-9.827 17.654M860.03 163.47c-4.96 0-7.843 3.069-8.339 3.674l.403-31.854c0-.79-.589-1.379-1.395-1.379h-1.178c-.806 0-1.395.589-1.395 1.38l.496 59.628c0 .791.589 1.38 1.395 1.38.186 0 .589-.093.79-.186 8.525-4.278 17.453-12.4 17.453-22.63 0-5.146-2.371-10.013-8.23-10.013m-8.634 27.977.295-19.344c.201-.899 1.69-3.767 5.657-3.767 3.581 0 3.875 3.364 3.875 5.456 0 8.82-3.27 12.493-9.827 17.654M722.17 510c-4.96 0-7.843 3.069-8.339 3.674l.403-31.853c0-.79-.589-1.38-1.395-1.38h-1.178c-.806 0-1.395.589-1.395 1.38l.496 59.628c0 .791.589 1.38 1.395 1.38.186 0 .589-.093.79-.186 8.526-4.278 17.454-12.4 17.454-22.63 0-5.146-2.372-10.013-8.231-10.013m-8.633 27.977.294-19.344c.202-.899 1.69-3.767 5.657-3.767 3.581 0 3.875 3.364 3.875 5.456 0 8.82-3.27 12.493-9.827 17.654M749.75 472.8c-4.96 0-7.843 3.069-8.339 3.674l.403-31.853c0-.79-.589-1.38-1.395-1.38h-1.178c-.806 0-1.395.589-1.395 1.38l.496 59.629c0 .79.589 1.38 1.395 1.38.186 0 .589-.094.79-.187 8.526-4.278 17.454-12.4 17.454-22.63 0-5.146-2.372-10.013-8.231-10.013m-8.633 27.977.294-19.344c.202-.899 1.69-3.766 5.657-3.766 3.581 0 3.875 3.363 3.875 5.456 0 8.819-3.27 12.493-9.827 17.654M777.32 522.4c-4.96 0-7.843 3.069-8.339 3.674l.403-31.853c0-.79-.589-1.38-1.395-1.38h-1.178c-.806 0-1.395.589-1.395 1.38l.496 59.628c0 .791.589 1.38 1.395 1.38.186 0 .589-.093.79-.186 8.526-4.278 17.454-12.4 17.454-22.63 0-5.146-2.372-10.013-8.231-10.013m-8.633 27.977.294-19.344c.202-.899 1.69-3.767 5.657-3.767 3.581 0 3.875 3.364 3.875 5.456 0 8.82-3.27 12.493-9.827 17.654M804.88 485.2c-4.96 0-7.843 3.069-8.339 3.674l.403-31.854c0-.79-.589-1.379-1.395-1.379h-1.178c-.806 0-1.395.589-1.395 1.38l.496 59.628c0 .791.589 1.38 1.395 1.38.186 0 .589-.093.79-.186 8.526-4.278 17.454-12.4 17.454-22.63 0-5.146-2.372-10.013-8.231-10.013m-8.633 27.977.294-19.344c.202-.899 1.69-3.767 5.657-3.767 3.581 0 3.875 3.364 3.875 5.457 0 8.819-3.27 12.493-9.827 17.654M832.46 534.8c-4.96 0-7.843 3.069-8.339 3.674l.403-31.854c0-.79-.589-1.379-1.395-1.379h-1.178c-.806 0-1.395.589-1.395 1.38l.496 59.628c0 .791.589 1.38 1.395 1.38.186 0 .589-.093.79-.186 8.526-4.278 17.454-12.4 17.454-22.63 0-5.146-2.372-10.013-8.231-10.013m-8.633 27.977.294-19.344c.202-.899 1.69-3.767 5.657-3.767 3.581 0 3.875 3.364 3.875 5.456 0 8.82-3.27 12.493-9.827 17.654M860.03 497.6c-4.96 0-7.843 3.069-8.339 3.674l.403-31.853c0-.79-.589-1.38-1.395-1.38h-1.178c-.806 0-1.395.589-1.395 1.38l.496 59.629c0 .79.589 1.38 1.395 1.38.186 0 .589-.094.79-.187 8.525-4.278 17.453-12.4 17.453-22.63 0-5.146-2.371-10.013-8.23-10.013m-8.634 27.977.295-19.344c.201-.899 1.69-3.767 5.657-3.767 3.581 0 3.875 3.364 3.875 5.456 0 8.82-3.27 12.493-9.827 17.654" class="KeySig"/><path d="M928.89 170.82c-.79 2.17-2.774 9.316-7.641 9.316-6.448 0-7.843-3.969-13.191-3.969-.79 0-1.597.109-2.589.295 0 0 2.48-3.767 13.004-7.037 10.51-3.27 13.191-8.432 13.191-14.384 0-4.17-1.875-12.4-16.864-12.4-14.973 0-17.763 9.021-17.763 13.593 0 4.061 3.38 7.331 7.44 7.331a7.32 7.32 0 0 0 7.347-7.331c0-2.775-1.984-5.859-4.557-6.851-.31-.093-.697-.59-.697-1.085 0-.605.496-1.287 2.278-1.783.496-.201 1.891-.496 3.379-.496 5.642 0 6.742 3.472 6.742 8.525 0 11.61-13.795 14.09-19.545 22.723 0 0-2.976 4.154-2.976 8.82 0 4.665 2.387 4.96 3.565 4.96 1.597 0 3.286-1.287 3.286-3.069 0-.403-.108-.79-.31-1.286-.589-1.395-.79-2.48-.79-3.286 0-.295 0-.59.108-.884.093-.604.884-1.596 3.27-1.596 2.869 0 3.969 3.379 5.751 5.952 1.783 2.588 4.557 4.17 7.735 4.17 3.177 0 7.44-2.28 9.238-5.953 1.782-3.673 4.06-11.114 4.06-13.78 0-1.302-.79-1.89-1.689-1.89-.697 0-1.38.402-1.782 1.394M912.32 228.65v7.332h-8.23c-.698 0-1.395.604-1.395 1.395v1.89c0 .791.697 1.38 1.395 1.38h30.055c.806 0 1.395-.589 1.395-1.38v-1.89c0-.79-.59-1.395-1.395-1.395h-8.82v-7.332h8.82c.806 0 1.395-.697 1.395-1.488v-1.891c0-.698-.59-1.38-1.395-1.38h-8.82v-15.778c0-.59-.295-1.085-.79-1.287l-1.194-.604c-.202-.093-.496-.187-.698-.187-.294.093-.697.187-.899.388l-9.02 8.23c-.295.31-.403.698-.403 1.101v8.138h-11.408s11.02-11.904 22.723-27.59c.403-.496.496-.992.496-1.38 0-.496-.202-.899-.295-.992l-2.186-2.185a1.497 1.497 0 0 0-.992-.404h-14.678c-.806 0-1.302.605-1.395 1.194 0 0-.496 7.347-3.069 15.376-2.588 8.045-5.564 13.004-8.137 16.662 0 0-.295.496-.295 1.1 0 .202 0 .388.093.59.403.697.992 1.782.992 1.782s.202.605 1.085.605h17.066M928.89 480.15c-.79 2.17-2.774 9.316-7.641 9.316-6.448 0-7.843-3.969-13.191-3.969-.79 0-1.597.109-2.589.295 0 0 2.48-3.767 13.004-7.037 10.51-3.27 13.191-8.432 13.191-14.384 0-4.17-1.875-12.4-16.864-12.4-14.973 0-17.763 9.021-17.763 13.593 0 4.061 3.38 7.331 7.44 7.331a7.32 7.32 0 0 0 7.347-7.331c0-2.775-1.984-5.859-4.557-6.851-.31-.093-.697-.59-.697-1.085 0-.605.496-1.287 2.278-1.783.496-.201 1.891-.496 3.379-.496 5.642 0 6.742 3.472 6.742 8.525 0 11.61-13.795 14.09-19.545 22.723 0 0-2.976 4.154-2.976 8.82 0 4.665 2.387 4.96 3.565 4.96 1.597 0 3.286-1.287 3.286-3.069 0-.403-.108-.79-.31-1.286-.589-1.395-.79-2.48-.79-3.286 0-.295 0-.59.108-.884.093-.604.884-1.596 3.27-1.596 2.869 0 3.969 3.379 5.751 5.952 1.783 2.588 4.557 4.17 7.735 4.17 3.177 0 7.44-2.28 9.238-5.953 1.782-3.673 4.06-11.114 4.06-13.78 0-1.302-.79-1.89-1.689-1.89-.697 0-1.38.402-1.782 1.394M912.32 537.98v7.332h-8.23c-.698 0-1.395.604-1.395 1.395v1.89c0 .791.697 1.38 1.395 1.38h30.055c.806 0 1.395-.589 1.395-1.38v-1.89c0-.79-.59-1.395-1.395-1.395h-8.82v-7.332h8.82c.806 0 1.395-.697 1.395-1.488v-1.891c0-.698-.59-1.38-1.395-1.38h-8.82v-15.779c0-.589-.295-1.085-.79-1.286l-1.194-.605c-.202-.093-.496-.186-.698-.186-.294.093-.697.186-.899.388l-9.02 8.23c-.295.31-.403.698-.403 1.101v8.137h-11.408s11.02-11.904 22.723-27.59c.403-.495.496-.991.496-1.379 0-.496-.202-.899-.295-.992l-2.186-2.186a1.497 1.497 0 0 0-.992-.403h-14.678c-.806 0-1.302.605-1.395 1.194 0 0-.496 7.347-3.069 15.376-2.588 8.045-5.564 13.004-8.137 16.662 0 0-.295.496-.295 1.1 0 .202 0 .388.093.59.403.697.992 1.782.992 1.782s.202.605 1.085.605h17.066" class="TimeSig"/><path d="M2383.3 83.838c-.806 0-1.395.589-1.395 1.38V87c0 .806.589 1.395 1.395 1.395h28.566c.79 0 1.395-.589 1.395-1.395v-1.783c0-.79-.605-1.379-1.395-1.379H2383.3M2169.8 96.096c-.806 0-1.395.589-1.395 1.38v1.782c0 .806.589 1.395 1.395 1.395h28.566c.79 0 1.395-.589 1.395-1.395v-1.782c0-.791-.605-1.38-1.395-1.38H2169.8" class="Articulation"/><path d="M2626.4 68.124c-9.316-10.121-17.562-10.711-22.708-10.711-5.161 0-13.299.589-22.63 10.711-4.851 5.363-8.23 15.965-8.23 21.328 0 1.891.402 3.178 1.394 3.178 2.775 0 1.38-8.541 9.719-16.974 7.332-7.331 17.158-7.44 19.546-7.44h.387c2.387 0 12.214.109 19.546 7.44 8.34 8.432 6.944 16.973 9.719 16.973.992 0 1.395-1.193 1.395-3.177 0-5.363-3.27-16.073-8.138-21.328m-29.558 18.941a6.853 6.853 0 0 0 6.851 6.851c3.767 0 6.836-3.069 6.836-6.851 0-3.767-3.069-6.835-6.836-6.835-3.782 0-6.85 3.068-6.85 6.835M2591 627.27c0 3.767 3.069 6.835 6.851 6.835 3.767 0 6.835-3.069 6.835-6.835 0-3.782-3.068-6.851-6.835-6.851a6.853 6.853 0 0 0-6.851 6.851m29.558 18.941c4.867-5.255 8.137-15.965 8.137-21.328 0-1.984-.403-3.178-1.395-3.178-2.774 0-1.379 8.541-9.718 16.973-7.332 7.332-17.158 7.44-19.546 7.44h-.387c-2.387 0-12.214-.108-19.546-7.44-8.34-8.432-6.944-16.973-9.719-16.973-.992 0-1.395 1.287-1.395 3.178 0 5.363 3.38 15.965 8.23 21.328 9.332 10.121 17.47 10.711 22.63 10.711 5.147 0 13.393-.589 22.709-10.711" class="Fermata"/></g><path d="M2170 371.98v-1.984h-7.42l5.75-15.938.3.688s.98 2.187 4.34 3.078c.59.187 1.3.187 1.89.187 8.41 0 13.75-11.578 13.75-19.093 0-4.063-2.37-8.922-6.92-8.922-3.06 0-6.14 2.578-7.83 4.265l-.3.297-.18-.406s-2.08-3.75-5.55-4.25h-.3l-.5-.094c-5.64 0-8.22 5.938-9.79 10.485l1.78.89c.39-1.281 1.39-4.453 2.57-6.031.6-.891 1.79-1.687 2.68-1.891h.39c.29 0 .59 0 .79.204.39.296.5.796.5 1.484 0 2.375-1.78 6.734-2.28 7.719l-9.79 27.328h-6.05v1.984H2170m2.78-17.328c-.2 0-.59 0-.79-.094-1.49-.593-1.88-2.375-1.88-4.265 0-3.063 1.08-6.625 1.19-6.828.69-3.063 4.45-10 8.31-10 .2 0 .5 0 .69.093 1.19.297 1.39 2.188 1.39 3.172 0 4.75-3.47 15.641-7.83 17.719-.3.203-.78.203-1.08.203M2624.8 329.99c-3.08 0-6.14 2.578-7.83 4.265l-.3.297-.19-.406s-2.07-3.75-5.54-4.25c-.5-.094-1-.094-1.49-.094-3.37 0-7.72 1.282-10 6.625-.59-3.265-3.17-6.437-6.73-6.437-3.06 0-6.14 2.578-7.83 4.265l-.3.297-.18-.406s-2.08-3.75-5.55-4.25h-.3l-.5-.094c-5.64 0-8.22 5.938-9.8 10.485l1.79.89c.39-1.281 1.48-4.453 2.67-6.031.59-.891 1.69-1.687 2.58-1.891h.39c.29 0 .59 0 .79.204.39.296.5.796.5 1.484 0 2.375-1.78 6.734-2.28 7.719l-9.79 27.328h-6.05v1.984h22.17v-1.984h-7.42l5.75-15.938.3.688s.98 2.187 4.34 3.078c.59.187 1.3.187 1.89.187 5.44 0 10.89-5.531 12.97-13.453 1.48-4.953 2.76-7.234 3.76-8.922.79-1.281 2.68-2.562 4.25-2.562 1.39 0 2.18.781 2.18 2.172 0 1.687-1.08 4.265-2.27 7.422l-9.81 27.328h-6.13v1.984h22.27v-1.984h-7.42l5.73-15.938.3.688s.9 2.187 4.26 3.078c.6.187 1.28.187 1.88.187 8.42 0 13.86-11.578 13.86-19.093 0-4.063-2.38-8.922-6.92-8.922m-39.91 24.453c-.3.203-.78.203-1.08.203-.2 0-.59 0-.8-.094-1.48-.593-1.87-2.375-1.87-4.265 0-3.063 1.08-6.625 1.19-6.828.68-3.063 4.45-10 8.31-10 .2 0 .5 0 .69.093 1.18.297 1.39 2.188 1.39 3.172 0 4.75-3.47 15.641-7.83 17.719m32.08 0c-.3.203-.78.203-1.08.203-.2 0-.59 0-.8-.094-1.48-.593-1.87-2.375-1.87-4.265 0-3.063 1.08-6.625 1.19-6.828.68-3.063 4.45-10 8.31-10 .19 0 .48 0 .69.093 1.18.297 1.39 2.188 1.39 3.172 0 4.75-3.47 15.641-7.83 17.719" class="Dynamic"/><g fill-rule="evenodd"><path d="m1584.2 67.243 429.5-6.2v12.402l-429.5 6.2V67.243M1584.2 85.843l429.5-6.2v12.402l-429.5 6.2V85.843M2190.3 110.63l215.99-12.4v12.42l-215.99 12.4v-12.42M1014.9 79.643l429.5-6.2v12.402l-429.5 6.2V79.643M1014.9 98.243l429.5-6.2v12.402l-429.5 6.2V98.243M2160.6 278.04l215.99 6.2v12.405l-215.99-6.2V278.04M985.13 271.84l429.5 12.4v12.405l-429.5-12.4V271.84M985.13 253.24l27.28.787v12.405l-27.28-.787V253.24M1414.6 265.64l-27.28-.788v12.405l27.28.788V265.64M2160.6 543.95l215.99 18.6v12.446l-215.99-18.6V543.95M985.13 605.94l287.16-31v12.472l-287.16 31V605.94M985.13 587.34l144.82-15.634v12.472l-144.82 15.634V587.34" class="Beam"/></g><path d="M1950.9 125.79c0 .206.065.619.553.76 2.984.976 8.963 4.73 13.476 12.434 1.248 2.148 3.266 5.142 3.266 10.904 0 5.001-1.258 10.134-3.124 15.136-.142.423-.217.77-.217 1.041 0 .488.282.695.77.695.412 0 .76-.272 1.041-.76 3.125-5.555 4.308-12.022 4.308-18.337-.347-8.962-5.49-15.559-5.49-15.559.206 0-6.39-8.539-8.268-11.458-2.56-3.96-3.743-7.91-3.884-8.192-.065-.206-.695-2.712-.695-2.712-.065-.271-.412-.554-.835-.554a.92.92 0 0 0-.9.901v15.7" class="Hook"/><path fill="none" stroke="#000" stroke-linejoin="bevel" stroke-width="2.98" d="m1596.77 304.71 502.3-14.26-502.3-14.26" class="HairpinSegment"/><path d="M2315.4 347.93c-2.91 4.703-4.16 6-5.8 6-.81 0-1.25-.5-1.25-1.39 0-.657.25-1.797.75-3.547l8.89-30.016-9.95.75-.19 1.813h1.55c2.05 0 2.84.437 2.84 1.547 0 .5-.14 1.14-.45 2.203l-3.3 11.093c-.89-2.593-2.84-4.046-5.75-4.046-7.2 0-13.89 7.703-13.89 16 0 4.906 3.14 8.25 7.85 8.25 3.4 0 5.9-1.407 8.09-4.657-.05.407-.05.907-.05 1.11 0 2.297 1.21 3.547 3.41 3.547 3.14 0 5.89-2.454 8.75-7.75l-1.5-.907m-12.5-13.343c2.45 0 4.25 1.906 4.25 4.5 0 4.546-3.2 15.156-9 15.156-2.7 0-4.45-2.156-4.45-5.406 0-4.75 3.4-14.25 9.2-14.25m27.45-14.454c-1.5 0-2.7 1.204-2.7 2.704 0 1.453 1.2 2.703 2.64 2.703 1.56 0 2.75-1.203 2.75-2.703s-1.19-2.704-2.69-2.704m.89 12.204-9.59.75-.2 1.796h1.2c2.05 0 2.84.454 2.84 1.547 0 .5-.09 1.063-.45 2.203l-2.89 9.75c-.95 3.204-1.11 3.907-1.11 5.047 0 1.75 1.5 3.11 3.41 3.11 4.29 0 7.25-4.453 9.34-7.703l-1.55-.844c-2.59 3.937-4.7 6.047-6.04 6.047-.5 0-.85-.453-.85-1.047 0-.5.19-1.406.6-2.813l5.29-17.843m16.96 0-9.1.75-.15 1.796h1.2c2 0 2.8.454 2.8 1.61 0 .437-.16 1.187-.41 2.14l-5.09 17.204h4.34l2.06-7.047c2.25-7.657 6.8-13.453 10.55-13.453 1.3 0 2.09.703 2.09 1.953 0 1-.39 3.093-1 5l-4 13.547h4.36l2.14-7.25c1.25-4.157 2.5-6.954 4.11-9.094 1.8-2.5 4.35-4.156 6.25-4.156 1.25 0 1.96.656 1.96 1.843 0 .703-.25 1.813-.71 3.203l-2.29 7.11c-1.36 3.89-1.41 4.187-1.41 5.594 0 2.093 1.55 3.5 3.91 3.5 1.64 0 3.25-.797 4.93-2.407 1.07-1 1.75-1.89 3.82-4.89l-1.57-1.047c-2.59 3.89-4.43 5.797-5.75 5.797-.54 0-1.04-.547-1.04-1.25 0-.453.15-1 .61-2.453l3.14-9.704c.36-1.093.61-2.64.61-3.75 0-2.64-1.96-4.546-4.66-4.546-3.55 0-6.75 2.296-9.66 7.046.21-.953.3-1.796.3-2.39 0-2.656-2.09-4.656-4.84-4.656-3.16 0-5.46 1.75-8.96 6.75l1.46-6.75m36.45 18.046c-1.7 0-3.11 1.407-3.11 3.11 0 1.687 1.41 3.094 3.06 3.094 1.8 0 3.14-1.344 3.14-3.094 0-1.703-1.39-3.11-3.09-3.11" class="HairpinSegment"/><path fill="none" stroke="#000" stroke-dasharray="17.856, 24.4479" stroke-miterlimit="2" stroke-width="2.98" d="M2401.07 354.35h144.8" class="HairpinSegment"/><path d="m1574 333.98-13.37.422v3.047h.9c3.72.062 3.89.312 3.83 5.828v13.672c-.05.844-.11 1.203-.36 1.562-.41.547-1.55.782-4.14.782h-.23v3.062h20.04v-3.062h-1.33c-4.01-.063-4.5-.36-4.5-2.578v-4.204c.25-8.875 2.77-14.328 7.08-15.468-.78 1.078-1.01 1.734-1.01 2.812 0 2.578 1.92 4.438 4.5 4.438 2.93 0 5.15-2.219 5.15-5.157 0-3.484-2.75-6.062-6.59-6.062-4.63 0-7.86 2.641-9.97 8.156v-7.25m28.47-15.844c-2.94 0-5.34 2.407-5.34 5.282 0 2.937 2.4 5.343 5.21 5.343 3.07 0 5.41-2.343 5.41-5.343 0-2.875-2.41-5.282-5.28-5.282m4.86 15.844-14.1.422v3.047h.83c3.67.062 3.85.312 3.85 5.641v13.859c-.07.844-.13 1.203-.36 1.562-.36.547-1.57.782-4.08.782h-.24v3.062H1612v-3.062h-.36c-3.78-.063-4.31-.422-4.31-2.578V333.98m29.08 0h-7.8v-11.89h-3.78c-.97 7.687-4.2 11.703-9.91 12.359v3.125h4.27v14.344c0 4.922.23 6.359 1.26 8.031 1.25 2.109 3.83 3.312 7.25 3.312 3.43 0 6.13-1.14 7.75-3.25 1.5-1.968 2.39-4.796 2.39-7.437 0-.297 0-.781-.06-1.375h-3.17c.06 4.5-1.33 6.953-3.78 6.953-1.74 0-2.22-1.078-2.22-5.156v-15.422h7.8v-3.594m12.48 18a5.631 5.631 0 0 0-5.64 5.641c0 3.047 2.52 5.64 5.58 5.64 3.17 0 5.7-2.531 5.7-5.64a5.638 5.638 0 0 0-5.64-5.641" class="GradualTempoChangeSegment"/><path d="M568.47 345.91c6.462-7.788 19.048-23.682 19.048-53.109 0-37.215-14.047-74.812-14.047-98.047 0-24.959 12.586-48.258 13.316-49.024v-.83c0-.447 0-.83-.337-1.213-.393 0-1.124 0-1.461.766-.337.447-19.778 22.47-19.778 55.981 0 35.938 12.586 61.28 12.586 108.26 0 9-3.259 23.3-12.249 36.002-.337 0-.337.766-.674 1.213 0 .383.337.83.674 1.213 8.99 12.64 12.249 26.937 12.249 35.938 0 46.981-12.586 72.323-12.586 108.26 0 33.13 19.441 55.6 19.778 55.982.337.83 1.068 1.213 1.46.83.338-.383.675-.83.338-1.213v-.83c-.73-.83-13.316-24.129-13.316-49.024 0-23.299 14.047-60.897 14.047-98.047 0-29.81-12.586-45.385-19.048-53.109" class="Bracket"/></svg>