<svg xmlns="http://www.w3.org/2000/svg" version="1.2" viewBox="0 0 3500 413.01"><g fill="none" stroke="#000" stroke-linejoin="bevel"><g stroke-width="2.73"><path d="M773.706 35.92H2757.94M773.706 60.72H2757.94M773.706 85.52H2757.94M773.706 110.32H2757.94M773.706 135.12H2757.94M773.706 251.02H2757.94M773.706 275.82H2757.94M773.706 300.62H2757.94M773.706 325.42H2757.94M773.706 350.22H2757.94" class="StaffLines"/></g><g stroke-width="4.46"><path d="M1391.99 34.55v216.47M775.938 34.55v216.47M2285.94 34.55v216.47M2732.94 34.55v216.47" class="BarLine"/></g><path stroke-width="13.64" d="M2751.14 34.55v216.47" class="BarLine"/><path stroke-width="4.46" d="M1838.94 34.55v216.47M2732.94 249.66v101.93" class="BarLine"/><path stroke-width="13.64" d="M2751.14 249.66v101.93" class="BarLine"/><g stroke-width="4.46"><path d="M2285.94 249.66v101.93M775.938 249.66v101.93M1838.94 249.66v101.93M1391.99 249.66v101.93" class="BarLine"/></g></g><path d="M1129.2 223.24c-4.96 0-7.843 3.069-8.339 3.674l.403-31.853c0-.79-.589-1.38-1.395-1.38h-1.178c-.806 0-1.395.589-1.395 1.38l.496 59.628c0 .791.589 1.38 1.395 1.38.186 0 .589-.093.79-.186 8.526-4.278 17.454-12.4 17.454-22.63 0-5.146-2.372-10.013-8.231-10.013m-8.633 27.977.294-19.344c.202-.899 1.69-3.766 5.658-3.766 3.58 0 3.874 3.363 3.874 5.456 0 8.82-3.27 12.493-9.826 17.654M2023.1 223.24c-4.96 0-7.843 3.069-8.339 3.674l.403-31.853c0-.79-.589-1.38-1.395-1.38h-1.178c-.806 0-1.395.589-1.395 1.38l.496 59.628c0 .791.589 1.38 1.395 1.38.186 0 .589-.093.79-.186 8.526-4.278 17.454-12.4 17.454-22.63 0-5.146-2.372-10.013-8.231-10.013m-8.633 27.977.294-19.344c.202-.899 1.69-3.766 5.658-3.766 3.58 0 3.875 3.363 3.875 5.456 0 8.82-3.271 12.493-9.827 17.654" class="Accidental"/><g fill="none" stroke="#000" stroke-linejoin="bevel"><g stroke-width="3.97"><path d="M1581.89 159.92h49.59M2475.84 159.92h49.6M2311.74 375.02h49.6M2311.74 399.82h49.6M1417.78 375.02h49.6" class="LedgerLine"/></g><g stroke-width="2.48"><path d="M2485.74 114.48v107.44M1591.81 102.08v167.75M1144.84 114.48v142.95M2038.74 114.48v156.17M2351.44 395.85v-95.23M1144.84 242.79v84.28M2038.74 242.79v82.63M1591.81 255.19v82.63M1904.44 346.25v-82.83M1457.46 383.45v-82.83M1010.48 346.25v-82.83" class="Stem"/></g></g><g stroke-width=".992"><path d="M1611.7 109.62c-9.626 0-21.126 8.044-21.126 17.267 0 4.263 3.069 9.021 11.113 9.021 10.308 0 21.127-8.432 21.127-17.159 0-5.859-4.96-9.13-11.114-9.13m-13.686 21.623c-3.27 0-3.968-2.666-3.968-3.565 0-4.867 16.662-13.392 21.328-13.392 2.387 0 3.968 1.395 3.968 3.565 0 4.96-16.771 13.392-21.328 13.392" class="Note"/><path d="M1611.7 84.816c-9.626 0-21.126 8.044-21.126 17.267 0 4.263 3.069 9.021 11.113 9.021 10.308 0 21.127-8.432 21.127-17.159 0-5.859-4.96-9.13-11.114-9.13m-13.686 21.622c-3.27 0-3.968-2.666-3.968-3.565 0-4.867 16.662-13.392 21.328-13.392 2.387 0 3.968 1.395 3.968 3.565 0 4.96-16.771 13.392-21.328 13.392M2058.7 134.42c-9.625 0-21.126 8.044-21.126 17.267 0 4.262 3.069 9.021 11.114 9.021 10.308 0 21.126-8.432 21.126-17.159 0-5.859-4.96-9.13-11.114-9.13m-13.686 21.622c-3.27 0-3.968-2.666-3.968-3.565 0-4.867 16.662-13.392 21.328-13.392 2.387 0 3.968 1.395 3.968 3.565 0 4.96-16.771 13.392-21.328 13.392M2058.7 97.216c-9.625 0-21.126 8.044-21.126 17.267 0 4.262 3.069 9.021 11.114 9.021 10.308 0 21.126-8.432 21.126-17.159 0-5.859-4.96-9.13-11.114-9.13m-13.686 21.622c-3.27 0-3.968-2.666-3.968-3.565 0-4.867 16.662-13.392 21.328-13.392 2.387 0 3.968 1.396 3.968 3.566 0 4.96-16.771 13.391-21.328 13.391M1164.7 134.42c-9.626 0-21.126 8.044-21.126 17.267 0 4.262 3.069 9.021 11.113 9.021 10.308 0 21.127-8.432 21.127-17.159 0-5.859-4.96-9.13-11.114-9.13m-13.686 21.622c-3.27 0-3.968-2.666-3.968-3.565 0-4.867 16.662-13.392 21.328-13.392 2.387 0 3.968 1.395 3.968 3.565 0 4.96-16.771 13.392-21.328 13.392M2505.6 146.82c-9.625 0-21.126 8.044-21.126 17.267 0 4.263 3.069 9.021 11.114 9.021 10.308 0 21.126-8.432 21.126-17.159 0-5.859-4.96-9.13-11.114-9.13m-13.686 21.623c-3.27 0-3.968-2.666-3.968-3.565 0-4.867 16.662-13.392 21.328-13.392 2.387 0 3.968 1.395 3.968 3.565 0 4.96-16.771 13.392-21.328 13.392" class="Note"/><path d="M2505.6 122.02c-9.625 0-21.126 8.044-21.126 17.267 0 4.263 3.069 9.021 11.114 9.021 10.308 0 21.126-8.432 21.126-17.159 0-5.859-4.96-9.13-11.114-9.13m-13.686 21.622c-3.27 0-3.968-2.665-3.968-3.564 0-4.867 16.662-13.392 21.328-13.392 2.387 0 3.968 1.395 3.968 3.565 0 4.96-16.771 13.392-21.328 13.392" class="Note"/><path d="M2505.6 97.216c-9.625 0-21.126 8.044-21.126 17.267 0 4.262 3.069 9.021 11.114 9.021 10.308 0 21.126-8.432 21.126-17.159 0-5.859-4.96-9.13-11.114-9.13m-13.686 21.622c-3.27 0-3.968-2.666-3.968-3.565 0-4.867 16.662-13.392 21.328-13.392 2.387 0 3.968 1.396 3.968 3.566 0 4.96-16.771 13.391-21.328 13.391M1164.7 97.216c-9.626 0-21.126 8.044-21.126 17.267 0 4.262 3.069 9.021 11.113 9.021 10.308 0 21.127-8.432 21.127-17.159 0-5.859-4.96-9.13-11.114-9.13m-13.686 21.622c-3.27 0-3.968-2.666-3.968-3.565 0-4.867 16.662-13.392 21.328-13.392 2.387 0 3.968 1.396 3.968 3.566 0 4.96-16.771 13.391-21.328 13.391M1611.7 146.82c-9.626 0-21.126 8.044-21.126 17.267 0 4.263 3.069 9.021 11.113 9.021 10.308 0 21.127-8.432 21.127-17.159 0-5.859-4.96-9.13-11.114-9.13m-13.686 21.623c-3.27 0-3.968-2.666-3.968-3.565 0-4.867 16.662-13.392 21.328-13.392 2.387 0 3.968 1.395 3.968 3.565 0 4.96-16.771 13.392-21.328 13.392M1611.7 237.92c-9.626 0-21.126 8.044-21.126 17.267 0 4.262 3.069 9.021 11.113 9.021 10.308 0 21.127-8.432 21.127-17.159 0-5.859-4.96-9.13-11.114-9.13m-13.686 21.622c-3.27 0-3.968-2.666-3.968-3.565 0-4.867 16.662-13.392 21.328-13.392 2.387 0 3.968 1.395 3.968 3.565 0 4.96-16.771 13.392-21.328 13.392M2058.7 225.52c-9.625 0-21.126 8.044-21.126 17.267 0 4.263 3.069 9.021 11.114 9.021 10.308 0 21.126-8.432 21.126-17.159 0-5.859-4.96-9.13-11.114-9.13m-13.686 21.622c-3.27 0-3.968-2.665-3.968-3.564 0-4.867 16.662-13.392 21.328-13.392 2.387 0 3.968 1.395 3.968 3.565 0 4.96-16.771 13.392-21.328 13.392M2341.5 386.72c-9.625 0-21.126 8.044-21.126 17.267 0 4.263 3.069 9.021 11.114 9.021 10.308 0 21.126-8.432 21.126-17.159 0-5.859-4.96-9.13-11.114-9.13m-13.686 21.623c-3.27 0-3.968-2.666-3.968-3.565 0-4.867 16.662-13.392 21.328-13.392 2.387 0 3.968 1.395 3.968 3.565 0 4.96-16.771 13.392-21.328 13.392M1164.7 225.52c-9.626 0-21.126 8.044-21.126 17.267 0 4.263 3.069 9.021 11.113 9.021 10.308 0 21.127-8.432 21.127-17.159 0-5.859-4.96-9.13-11.114-9.13m-13.686 21.622c-3.27 0-3.968-2.665-3.968-3.564 0-4.867 16.662-13.392 21.328-13.392 2.387 0 3.968 1.395 3.968 3.565 0 4.96-16.771 13.392-21.328 13.392M1894.6 337.12c-9.625 0-21.126 8.044-21.126 17.267 0 4.263 3.069 9.021 11.114 9.021 10.308 0 21.126-8.432 21.126-17.159 0-5.859-4.96-9.13-11.114-9.13m-13.686 21.622c-3.27 0-3.968-2.665-3.968-3.564 0-4.867 16.662-13.392 21.328-13.392 2.387 0 3.968 1.395 3.968 3.565 0 4.96-16.771 13.392-21.328 13.392M1000.6 337.12c-9.626 0-21.127 8.044-21.127 17.267 0 4.263 3.069 9.021 11.113 9.021 10.308 0 21.127-8.432 21.127-17.159 0-5.859-4.96-9.13-11.114-9.13m-13.687 21.622c-3.27 0-3.968-2.665-3.968-3.564 0-4.867 16.663-13.392 21.328-13.392 2.387 0 3.968 1.395 3.968 3.565 0 4.96-16.771 13.392-21.328 13.392M1447.6 374.32c-9.626 0-21.126 8.044-21.126 17.267 0 4.263 3.069 9.021 11.113 9.021 10.308 0 21.127-8.432 21.127-17.159 0-5.859-4.96-9.13-11.114-9.13m-13.686 21.622c-3.27 0-3.968-2.665-3.968-3.564 0-4.867 16.662-13.392 21.328-13.392 2.387 0 3.968 1.395 3.968 3.565 0 4.96-16.771 13.392-21.328 13.392" class="Note"/><path d="M808.97 161.2c0 6.556 4.96 15.19 18.352 15.19 4.665 0 8.742-1.194 12.307-3.379 5.363-3.766 6.742-10.323 6.742-16.569 0-3.86-.588-8.323-1.58-13.981-.295-1.984-.9-4.96-1.489-8.835 9.719-3.178 16.957-13.299 16.957-23.514 0-14.973-10.617-25.095-25.095-25.095-.992-5.952-1.984-11.811-2.774-17.36 10.416-11.021 17.654-23.421 17.654-39.184 0-9.036-2.774-16.368-4.37-19.948C843.301 3.472 840.418 0 838.635 0c-.697 0-3.766 1.193-7.037 5.053-6.355 7.548-8.137 20.243-8.137 28.566 0 5.363.496 10.23 2.185 21.343-.108.093-5.27 5.348-7.347 7.037-9.036 8.339-21.529 20.429-21.529 40.284 0 18.538 16.167 33.124 34.627 33.124 2.868 0 5.55-.295 7.828-.697 1.89 9.532 3.084 16.476 3.084 21.73 0 10.324-5.363 15.78-15.376 15.78-2.387 0-4.464-.496-4.666-.496-.093-.109-.294-.202-.294-.295 0-.201.202-.31.496-.31 4.666-.79 9.316-4.759 9.316-11.098 0-5.363-4.061-11.021-11.501-11.021-6.944 0-11.315 5.657-11.315 12.199m20.739-132.43c.899-3.968 5.456-14.384 10.618-14.384 1.488 0 3.86 4.758 3.86 11.702 0 10.323-7.627 18.058-14.478 24.8-.589-3.968-1.085-7.828-1.085-11.997 0-3.674.295-7.053 1.085-10.121m8.727 101.97c-1.984.403-3.86.604-5.75.604-14.183 0-26.289-9.92-26.289-24.908 0-12.09 8.525-22.909 17.267-30.458 1.674-1.488 3.27-2.867 4.759-4.355.883 5.347 1.58 10.013 2.278 14.089-9.036 2.681-15.174 12.199-15.174 21.53 0 6.944 5.456 16.46 13.392 16.46.79 0 1.69-.402 1.69-1.286 0-.899-.993-1.395-2.186-2.185-3.875-2.387-6.06-4.96-6.06-9.827 0-6.045 4.572-10.912 10.322-12.292l5.751 32.628m14.089-18.352c0 7.052-2.883 14.29-9.92 17.174-2.077-11.904-4.758-27.683-5.456-32.054 8.928 0 15.376 6.06 15.376 14.88M821.97 250.93c-7.548 0-13.594 4.356-13.702 4.356-5.843 4.262-9.61 10.819-9.61 18.057 0 7.238 4.154 12.6 11.501 12.6 6.355 0 11.315-4.262 11.315-10.818 0-5.658-4.96-10.308-10.525-10.308-1.193 0-2.278.186-3.177.496-.993.387-2.667 1.38-3.473 2.077.698-4.371 3.674-8.727 7.549-10.82 2.48-1.379 5.658-1.983 9.13-1.983 10.12 0 15.08 8.137 15.08 24.8 0 12.896-8.245 31.45-17.964 40.192-10.323 9.424-20.042 13.888-20.134 13.888 0 0-1.194.682-1.194 1.875 0 .202.093.295.093.496.31.992 1.194 1.194 1.891 1.194l.295-.093c.201 0 11.517-4.666 20.537-11.718 13.888-10.013 29.559-27.667 29.559-45.927 0-17.267-9.316-28.365-27.171-28.365m31.139 12.586c0 2.79 2.185 4.96 4.774 4.96 2.573 0 4.758-2.17 4.758-4.96 0-2.775-2.186-5.053-4.758-5.053-2.589 0-4.774 2.278-4.774 5.053m0 24.506c0 2.774 2.185 5.068 4.774 5.068 2.573 0 4.758-2.294 4.758-5.068 0-2.775-2.186-5.053-4.758-5.053-2.589 0-4.774 2.278-4.774 5.053" class="Clef"/><path d="M916.94 59.628c4.96-1.891 8.432-5.069 8.432-10.524 0-.884-.294-12.106-17.36-12.106-17.065 0-16.569 12.106-16.569 12.106h.093l-.093.201c0 3.565 2.883 6.355 6.448 6.355 3.565 0 6.355-2.79 6.355-6.355 0-2.883-2.186-5.657-4.96-6.246.093-.109.186-.202.295-.295 1.379-.992 3.27-1.488 5.161-1.488 4.154 0 8.618 2.48 8.618 7.828 0 6.247-4.65 7.146-5.844 7.347-1.193.202-6.742.59-7.936.59-1.193 0-1.286 1.394-1.286 1.394v1.984s.186 1.085 1.286 1.194c1.69.093 3.968.093 7.146.589 4.355.589 6.634 3.565 6.634 10.509 0 6.65-4.464 8.432-8.618 8.432-2.79 0-5.363-.791-6.448-1.581 3.27-.202 5.952-3.07 5.952-6.355 0-3.565-2.79-6.448-6.355-6.448a6.443 6.443 0 0 0-6.448 6.448c0 8.137 7.44 12.214 14.787 12.214 9.517 0 19.84-3.286 19.84-14.09 0-7.239-4.96-10.323-9.331-11.702h.201M906.68 122.91v7.332h-8.23c-.698 0-1.396.604-1.396 1.395v1.89c0 .791.698 1.38 1.395 1.38h30.055c.806 0 1.395-.589 1.395-1.38v-1.89c0-.79-.588-1.395-1.395-1.395h-8.819v-7.332h8.82c.805 0 1.394-.697 1.394-1.488v-1.891c0-.698-.588-1.38-1.395-1.38h-8.819v-15.778c0-.59-.295-1.085-.79-1.287l-1.194-.604c-.202-.093-.496-.187-.698-.187-.294.093-.697.187-.899.388l-9.02 8.23c-.295.31-.403.698-.403 1.101v8.138h-11.408s11.02-11.904 22.723-27.59c.403-.496.496-.992.496-1.38 0-.496-.202-.899-.295-.992l-2.186-2.185a1.497 1.497 0 0 0-.992-.404h-14.678c-.806 0-1.302.605-1.395 1.194 0 0-.496 7.347-3.069 15.376-2.588 8.045-5.564 13.005-8.137 16.663 0 0-.295.496-.295 1.1 0 .202 0 .388.093.59.403.697.992 1.782.992 1.782s.202.604 1.085.604h17.066M916.94 274.74c4.96-1.891 8.432-5.069 8.432-10.524 0-.884-.294-12.106-17.36-12.106-17.065 0-16.569 12.106-16.569 12.106h.093l-.093.201c0 3.565 2.883 6.355 6.448 6.355 3.565 0 6.355-2.79 6.355-6.355 0-2.883-2.186-5.657-4.96-6.246.093-.109.186-.201.295-.295 1.379-.992 3.27-1.488 5.161-1.488 4.154 0 8.618 2.48 8.618 7.828 0 6.247-4.65 7.146-5.844 7.347-1.193.202-6.742.59-7.936.59-1.193 0-1.286 1.394-1.286 1.394v1.984s.186 1.085 1.286 1.194c1.69.093 3.968.093 7.146.589 4.355.589 6.634 3.565 6.634 10.509 0 6.65-4.464 8.432-8.618 8.432-2.79 0-5.363-.791-6.448-1.581 3.27-.202 5.952-3.07 5.952-6.355 0-3.565-2.79-6.448-6.355-6.448a6.443 6.443 0 0 0-6.448 6.448c0 8.137 7.44 12.214 14.787 12.214 9.517 0 19.84-3.286 19.84-14.09 0-7.239-4.96-10.323-9.331-11.702h.201M906.68 338.02v7.332h-8.23c-.698 0-1.396.604-1.396 1.395v1.89c0 .791.698 1.38 1.395 1.38h30.055c.806 0 1.395-.589 1.395-1.38v-1.89c0-.79-.588-1.395-1.395-1.395h-8.819v-7.332h8.82c.805 0 1.394-.697 1.394-1.488v-1.891c0-.698-.588-1.38-1.395-1.38h-8.819v-15.779c0-.589-.295-1.085-.79-1.286l-1.194-.604c-.202-.093-.496-.187-.698-.187-.294.094-.697.187-.899.388l-9.02 8.23c-.295.31-.403.698-.403 1.101v8.137h-11.408s11.02-11.904 22.723-27.59c.403-.496.496-.992.496-1.379 0-.496-.202-.899-.295-.992l-2.186-2.186a1.497 1.497 0 0 0-.992-.403h-14.678c-.806 0-1.302.605-1.395 1.194 0 0-.496 7.347-3.069 15.376-2.588 8.045-5.564 13.005-8.137 16.663 0 0-.295.496-.295 1.1 0 .202 0 .388.093.59.403.697.992 1.782.992 1.782s.202.604 1.085.604h17.066" class="TimeSig"/><path d="M1002.3 101.97c-.093-.093-.295-.295-.589-.682l-11.408-14.09c-.109-.108-.202-.403-.202-.605 0-.294.094-.682.202-.883l10.106-15.283c.108-.202.201-.496.201-.698v-.883c0-.295-.093-.605-.294-.79l-16.074-21.732s-.388-.604-.992-.604c-.295 0-.496 0-.79.31a1.173 1.173 0 0 0-.497.992c0 .589.295 1.085.295 1.085l7.548 10.323c.186.294.295.682.295 1.178 0 .403-.109.899-.295 1.193l-10.029 15.283c-.093.202-.201.59-.201.79v.9c0 .294.108.589.31.79l11.098 13.795c-.388-.108-1.287-.31-2.48-.31-5.053 0-9.021 4.17-9.021 9.238 0 1.38.294 2.775 1.085 3.86 2.092 3.177 9.532 12.601 9.532 12.601s.496.605 1.194.605c.186 0 .388 0 .589-.202.496-.403.698-.79.698-1.194 0-.403-.202-.697-.295-.899-.31-.496-3.472-6.246-3.472-6.246s-.697-1.395-.697-3.178c0-3.177 2.371-5.75 5.549-5.75 1.286 0 2.387.403 3.177.899l3.875 2.48s.388.186.79.186c.388 0 .698-.093.993-.496.201-.294.294-.589.294-.884 0-.294-.093-.496-.294-.79l-.202-.31M2343.2 101.97c-.093-.093-.294-.295-.589-.682l-11.408-14.09c-.109-.108-.202-.403-.202-.605 0-.294.093-.682.202-.883l10.106-15.283c.108-.202.201-.496.201-.698v-.883c0-.295-.093-.605-.294-.79l-16.074-21.732s-.388-.604-.992-.604c-.295 0-.496 0-.79.31a1.173 1.173 0 0 0-.497.992c0 .589.295 1.085.295 1.085l7.549 10.323c.186.294.294.682.294 1.178 0 .403-.108.899-.294 1.193l-10.03 15.283c-.092.202-.2.59-.2.79v.9c0 .294.108.589.31.79l11.097 13.795c-.388-.108-1.287-.31-2.48-.31-5.053 0-9.021 4.17-9.021 9.238 0 1.38.294 2.775 1.085 3.86 2.092 3.177 9.532 12.601 9.532 12.601s.496.605 1.194.605c.186 0 .387 0 .589-.202.496-.403.697-.79.697-1.194 0-.403-.201-.697-.294-.899-.31-.496-3.472-6.246-3.472-6.246s-.698-1.395-.698-3.178c0-3.177 2.372-5.75 5.55-5.75 1.286 0 2.386.403 3.177.899l3.875 2.48s.387.186.79.186c.388 0 .698-.093.992-.496.202-.294.295-.589.295-.884 0-.294-.093-.496-.295-.79l-.201-.31M1449.3 101.97c-.093-.093-.295-.295-.589-.682l-11.408-14.09c-.108-.108-.202-.403-.202-.605 0-.294.093-.682.202-.883l10.106-15.283c.108-.202.202-.496.202-.698v-.883c0-.295-.094-.605-.295-.79l-16.074-21.732s-.388-.604-.992-.604c-.294 0-.496 0-.79.31a1.173 1.173 0 0 0-.497.992c0 .589.295 1.085.295 1.085l7.548 10.323c.186.294.295.682.295 1.178 0 .403-.109.899-.295 1.193l-10.028 15.283c-.093.202-.201.59-.201.79v.9c0 .294.108.589.31.79l11.098 13.795c-.388-.108-1.286-.31-2.48-.31-5.053 0-9.021 4.17-9.021 9.238 0 1.38.294 2.775 1.085 3.86 2.092 3.177 9.532 12.601 9.532 12.601s.496.605 1.194.605c.186 0 .388 0 .589-.202.496-.403.697-.79.697-1.194 0-.403-.201-.697-.294-.899-.31-.496-3.472-6.246-3.472-6.246s-.698-1.395-.698-3.178c0-3.177 2.372-5.75 5.55-5.75 1.286 0 2.386.403 3.177.899l3.875 2.48s.388.186.79.186c.388 0 .698-.093.992-.496.202-.294.295-.589.295-.884 0-.294-.093-.496-.295-.79l-.201-.31M1896.3 101.97c-.093-.093-.294-.295-.589-.682l-11.408-14.09c-.109-.108-.202-.403-.202-.605 0-.294.093-.682.202-.883l10.106-15.283c.108-.202.201-.496.201-.698v-.883c0-.295-.092-.605-.294-.79l-16.074-21.732s-.388-.604-.992-.604c-.294 0-.496 0-.79.31a1.173 1.173 0 0 0-.497.992c0 .589.295 1.085.295 1.085l7.549 10.323c.186.294.294.682.294 1.178 0 .403-.108.899-.294 1.193l-10.03 15.283c-.092.202-.2.59-.2.79v.9c0 .294.108.589.31.79l11.097 13.795c-.388-.108-1.287-.31-2.48-.31-5.053 0-9.021 4.17-9.021 9.238 0 1.38.294 2.775 1.085 3.86 2.092 3.177 9.533 12.601 9.533 12.601s.495.605 1.193.605c.186 0 .387 0 .589-.202.496-.403.698-.79.698-1.194 0-.403-.202-.697-.295-.899-.31-.496-3.472-6.246-3.472-6.246s-.698-1.395-.698-3.178c0-3.177 2.372-5.75 5.55-5.75 1.286 0 2.387.403 3.177.899l3.875 2.48s.387.186.79.186c.388 0 .698-.093.993-.496.201-.294.294-.589.294-.884 0-.294-.093-.496-.294-.79l-.202-.31" class="Rest"/></g><path d="M1000.8 167.97c-3.078 0-6.141 2.578-7.828 4.265l-.297.297-.188-.406s-2.078-3.75-5.546-4.25c-.5-.094-1-.094-1.485-.094-3.375 0-7.719 1.282-10 6.625-.594-3.265-3.172-6.437-6.734-6.437-3.063 0-6.141 2.578-7.828 4.265l-.297.297-.188-.406s-2.078-3.75-5.547-4.25h-.296l-.5-.094c-5.641 0-8.219 5.938-9.797 10.485l1.781.89c.391-1.281 1.484-4.453 2.672-6.031.594-.891 1.687-1.687 2.578-1.891h.391c.296 0 .593 0 .796.204.391.296.5.796.5 1.484 0 2.375-1.781 6.734-2.281 7.719l-9.797 27.328h-6.047v1.984h22.172v-1.984h-7.422l5.75-15.938.297.688s.985 2.187 4.344 3.078c.594.187 1.297.187 1.891.187 5.437 0 10.89-5.531 12.968-13.453 1.485-4.953 2.766-7.234 3.766-8.922.781-1.281 2.672-2.562 4.25-2.562 1.391 0 2.172.781 2.172 2.172 0 1.687-1.078 4.265-2.266 7.422l-9.812 27.328h-6.125v1.984h22.265v-1.984h-7.421l5.734-15.938.297.688s.906 2.187 4.265 3.078c.594.187 1.282.187 1.875.187 8.422 0 13.86-11.578 13.86-19.093 0-4.063-2.375-8.922-6.922-8.922m-39.906 24.453c-.297.203-.782.203-1.078.203-.204 0-.594 0-.797-.094-1.485-.593-1.875-2.375-1.875-4.265 0-3.063 1.078-6.625 1.187-6.828.688-3.063 4.453-10 8.313-10 .203 0 .5 0 .687.093 1.188.297 1.391 2.188 1.391 3.172 0 4.75-3.469 15.641-7.828 17.719m32.078 0c-.297.203-.781.203-1.078.203-.203 0-.594 0-.797-.094-1.485-.593-1.875-2.375-1.875-4.265 0-3.063 1.078-6.625 1.187-6.828.688-3.063 4.453-10 8.313-10 .187 0 .484 0 .687.093 1.188.297 1.391 2.188 1.391 3.172 0 4.75-3.469 15.641-7.828 17.719" class="Dynamic"/><g stroke-width=".992"><path d="M2365 387.42c0 2.775 2.186 4.96 4.96 4.96s4.96-2.186 4.96-4.96c0-2.775-2.186-4.96-4.96-4.96s-4.96 2.186-4.96 4.96M1918.1 362.62c0 2.775 2.186 4.96 4.96 4.96s4.96-2.186 4.96-4.96c0-2.775-2.186-4.96-4.96-4.96s-4.96 2.186-4.96 4.96M1471.1 387.42c0 2.775 2.186 4.96 4.96 4.96s4.96-2.186 4.96-4.96c0-2.775-2.186-4.96-4.96-4.96s-4.96 2.186-4.96 4.96M1024.1 362.62c0 2.775 2.186 4.96 4.96 4.96s4.96-2.186 4.96-4.96c0-2.775-2.186-4.96-4.96-4.96s-4.96 2.186-4.96 4.96" class="NoteDot"/></g><path d="M745.64 193.07c6.462-5.992 19.048-18.22 19.048-40.86 0-28.631-14.047-57.557-14.047-75.434 0-19.202 12.586-37.128 13.316-37.717v-.638c0-.344 0-.639-.337-.934-.393 0-1.124 0-1.461.59-.337.344-19.778 17.287-19.778 43.07 0 27.649 12.586 47.146 12.586 83.29 0 6.925-3.259 17.926-12.249 27.699-.337 0-.337.59-.674.933 0 .294.337.638.674.933 8.99 9.724 12.249 20.724 12.249 27.65 0 36.144-12.586 55.641-12.586 83.29 0 25.488 19.441 42.775 19.778 43.07.337.639 1.068.933 1.46.639.338-.295.675-.639.338-.934v-.638c-.73-.638-13.316-18.564-13.316-37.717 0-17.925 14.047-46.852 14.047-75.434 0-22.935-12.586-34.918-19.048-40.86" class="Bracket"/></svg>