<svg xmlns="http://www.w3.org/2000/svg" width="277.757" height="195.184" viewBox="0 0 73.49 51.643">
  <path d="M105.701 122.769c14.835.114 27.628-.921 32.19 4.088 4.563 5.01 3.68 14.776 3.79 21.43.11 6.653.512 16.834-3.79 21.949-4.302 5.115-20.571 4.02-32.19 4.038-11.619.019-29.878.675-33.824-4.387-3.947-5.063-3.626-14.385-3.54-21.6.085-7.217-1.138-16.411 3.54-21.18 4.677-4.77 18.989-4.452 33.824-4.338z" style="fill:#ea3223" transform="translate(-68.253 -122.718)"/>
  <path d="m105.424 136.734-2.314 12.837c-1.212-.084-3.94-1.312-7.696.194-2.519 1.34-3.749 3.282-3.373 5.98.446 1.203.284 3.853 6.136 4.715 4.71.61 5.991-1.503 7.04-3.8 1.1-3.044.92-8.306 1.563-12.297.325-1.458 1.186-3.5 4.46-3.655 1.804.112 3.553 2.028 3.856 3.094.187 1.48-.26 2.67-.82 3.252-.936.606-1.867.962-2.785.442-.426-.52-1.089-.906-.61-1.938.236-.346.45-.702 1.33-.734.47-.175.69-.52.444-1.18-.435-.396-.732-.876-1.924-.808-1.336.237-1.803 1.108-2.014 2.14-.251 1.494-.07 3.714 1.65 4.86 1.288.649 2.783.762 4.629-.035 1.473-.799 1.97-2.017 2.566-3.193.407-1.146 1.07-3.904-.726-5.449-1.292-1.214-2.338-2.477-5.51-2.947-.928-.037-1.967.038-3.405.513.401-.964.28-1.6-.361-1.907-.316-.209-.616-.303-.914-.378-1.151-.043-1.076.147-1.222.294z" style="fill:#fff" transform="translate(-68.253 -122.718)"/>
</svg>
