<svg xmlns="http://www.w3.org/2000/svg" version="1.2" viewBox="0 0 3500 531.51"><g fill="none" stroke="#000" stroke-linejoin="bevel"><g stroke-width="2.73"><path d="M419.376 62.7H3112.31M419.376 87.5H3112.31M419.376 112.3H3112.31M419.376 137.1H3112.31M419.376 161.9H3112.31M419.376 323.1H3112.31M419.376 347.9H3112.31M419.376 372.7H3112.31M419.376 397.5H3112.31M419.376 422.3H3112.31" class="StaffLines"/></g><g stroke-width="4.46"><path d="M1672.11 61.33V323.1M421.608 61.33V323.1M2752.41 61.33V323.1M3087.21 61.33V323.1" class="BarLine"/></g><path stroke-width="13.64" d="M3105.51 61.33V323.1" class="BarLine"/><g stroke-width="4.46"><path d="M421.608 321.73v101.93M2752.41 321.73v101.93M1672.11 321.73v101.93M3087.21 321.73v101.93" class="BarLine"/></g><path stroke-width="13.64" d="M3105.51 321.73v101.93" class="BarLine"/></g><g stroke-width=".992"><path d="M2865 453.79s-.698.589-1.395 1.38c-.294.31-.388.697-.388.992 0 .31.094.496.295.697.202.202.496.496 1.085 1.1.202.186.31.388.31.59 0 .402-.31.588-.31.588s-5.456 6.356-6.34 7.348c-.79 1.085-1.1 2.185-1.1 3.177 0 2.077 1.194 3.968 2.092 4.759l4.759 4.758c.295.295.496.403.79.403.497 0 .9-.403.9-.403s.697-.589 1.379-1.38c.31-.31.403-.604.403-.898s-.093-.496-.294-.698c-.202-.201-.497-.496-1.101-1.085-.186-.201-.294-.403-.294-.604 0-.388.294-.682.294-.682s5.363-6.355 6.262-7.347c.79-1.085 1.085-2.186 1.085-3.178 0-2.077-1.193-3.968-2.077-4.758l-4.774-4.759c-.294-.294-.589-.403-.79-.403-.497 0-.791.403-.791.403" class="Arpeggio"/><path d="M2865 431.97s-.698.589-1.395 1.38c-.294.31-.388.697-.388.992 0 .31.094.496.295.697.202.202.496.496 1.085 1.1.202.186.31.388.31.59 0 .402-.31.588-.31.588s-5.456 6.356-6.34 7.348c-.79 1.085-1.1 2.185-1.1 3.177 0 2.077 1.194 3.968 2.092 4.759l4.759 4.758c.295.295.496.403.79.403.497 0 .9-.403.9-.403s.697-.589 1.379-1.38c.31-.31.403-.604.403-.898s-.093-.496-.294-.698c-.202-.201-.497-.496-1.101-1.085-.186-.201-.294-.403-.294-.604 0-.388.294-.682.294-.682s5.363-6.355 6.262-7.347c.79-1.085 1.085-2.186 1.085-3.178 0-2.077-1.193-3.968-2.077-4.758l-4.774-4.759c-.294-.294-.589-.403-.79-.403-.497 0-.791.403-.791.403" class="Arpeggio"/><path d="M2865 410.14s-.698.589-1.395 1.38c-.294.31-.388.697-.388.992 0 .31.094.496.295.697.202.202.496.496 1.085 1.1.202.186.31.388.31.59 0 .402-.31.588-.31.588s-5.456 6.356-6.34 7.348c-.79 1.085-1.1 2.185-1.1 3.177 0 2.077 1.194 3.968 2.092 4.759l4.759 4.758c.295.295.496.403.79.403.497 0 .9-.403.9-.403s.697-.589 1.379-1.38c.31-.31.403-.604.403-.898s-.093-.496-.294-.698c-.202-.201-.497-.496-1.101-1.085-.186-.201-.294-.403-.294-.604 0-.388.294-.682.294-.682s5.363-6.355 6.262-7.347c.79-1.085 1.085-2.186 1.085-3.178 0-2.077-1.193-3.968-2.077-4.758l-4.774-4.759c-.294-.294-.589-.403-.79-.403-.497 0-.791.403-.791.403" class="Arpeggio"/><path d="M2865 388.32s-.698.589-1.395 1.38c-.294.31-.388.697-.388.992 0 .31.094.496.295.697.202.202.496.496 1.085 1.1.202.186.31.388.31.59 0 .402-.31.588-.31.588s-5.456 6.356-6.34 7.348c-.79 1.085-1.1 2.185-1.1 3.177 0 2.077 1.194 3.968 2.092 4.759l4.759 4.758c.295.295.496.403.79.403.497 0 .9-.403.9-.403s.697-.589 1.379-1.38c.31-.31.403-.604.403-.898s-.093-.496-.294-.698c-.202-.201-.497-.496-1.101-1.085-.186-.201-.294-.403-.294-.604 0-.388.294-.682.294-.682s5.363-6.355 6.262-7.347c.79-1.085 1.085-2.186 1.085-3.178 0-2.077-1.193-3.968-2.077-4.758l-4.774-4.759c-.294-.294-.589-.403-.79-.403-.497 0-.791.403-.791.403" class="Arpeggio"/><path d="M2865 366.49s-.698.589-1.395 1.38c-.294.31-.388.697-.388.992 0 .31.094.496.295.697.202.202.496.496 1.085 1.1.202.186.31.388.31.59 0 .402-.31.588-.31.588s-5.456 6.356-6.34 7.348c-.79 1.085-1.1 2.185-1.1 3.177 0 2.077 1.194 3.968 2.092 4.759l4.759 4.758c.295.295.496.403.79.403.497 0 .9-.403.9-.403s.697-.589 1.379-1.38c.31-.31.403-.604.403-.898s-.093-.496-.294-.698c-.202-.201-.497-.496-1.101-1.085-.186-.201-.294-.403-.294-.604 0-.388.294-.682.294-.682s5.363-6.355 6.262-7.347c.79-1.085 1.085-2.186 1.085-3.178 0-2.077-1.193-3.968-2.077-4.758l-4.774-4.759c-.294-.294-.589-.403-.79-.403-.497 0-.791.403-.791.403" class="Arpeggio"/><path d="M2865 344.67s-.698.589-1.395 1.38c-.294.31-.388.697-.388.992 0 .31.094.496.295.697.202.202.496.496 1.085 1.1.202.186.31.388.31.59 0 .402-.31.588-.31.588s-5.456 6.356-6.34 7.348c-.79 1.085-1.1 2.185-1.1 3.177 0 2.077 1.194 3.968 2.092 4.759l4.759 4.758c.295.295.496.403.79.403.497 0 .9-.403.9-.403s.697-.589 1.379-1.38c.31-.31.403-.604.403-.898s-.093-.496-.294-.698c-.202-.201-.497-.496-1.101-1.085-.186-.201-.294-.403-.294-.604 0-.388.294-.682.294-.682s5.363-6.355 6.262-7.347c.79-1.085 1.085-2.186 1.085-3.178 0-2.077-1.193-3.968-2.077-4.758l-4.774-4.759c-.294-.294-.589-.403-.79-.403-.497 0-.791.403-.791.403" class="Arpeggio"/><path d="M2865 322.85s-.698.589-1.395 1.38c-.294.31-.388.697-.388.992 0 .31.094.496.295.697.202.202.496.496 1.085 1.1.202.186.31.388.31.59 0 .402-.31.588-.31.588s-5.456 6.356-6.34 7.348c-.79 1.085-1.1 2.185-1.1 3.177 0 2.077 1.194 3.968 2.092 4.759l4.759 4.758c.295.295.496.403.79.403.497 0 .9-.403.9-.403s.697-.589 1.379-1.38c.31-.31.403-.604.403-.898s-.093-.496-.294-.698c-.202-.201-.497-.496-1.101-1.085-.186-.201-.294-.403-.294-.604 0-.388.294-.682.294-.682s5.363-6.355 6.262-7.347c.79-1.085 1.085-2.186 1.085-3.178 0-2.077-1.193-3.968-2.077-4.758l-4.774-4.759c-.294-.294-.589-.403-.79-.403-.497 0-.791.403-.791.403" class="Arpeggio"/><path d="M2865 301.02s-.698.589-1.395 1.38c-.294.31-.388.697-.388.992 0 .31.094.496.295.697.202.202.496.496 1.085 1.1.202.186.31.388.31.59 0 .402-.31.588-.31.588s-5.456 6.356-6.34 7.348c-.79 1.085-1.1 2.185-1.1 3.177 0 2.077 1.194 3.968 2.092 4.759l4.759 4.758c.295.295.496.403.79.403.497 0 .9-.403.9-.403s.697-.589 1.379-1.38c.31-.31.403-.604.403-.898s-.093-.496-.294-.698c-.202-.201-.497-.496-1.101-1.085-.186-.201-.294-.403-.294-.604 0-.388.294-.682.294-.682s5.363-6.355 6.262-7.347c.79-1.085 1.085-2.186 1.085-3.178 0-2.077-1.193-3.968-2.077-4.758l-4.774-4.759c-.294-.294-.589-.403-.79-.403-.497 0-.791.403-.791.403" class="Arpeggio"/><path d="M2865 279.2s-.698.589-1.395 1.38c-.294.31-.388.697-.388.992 0 .31.094.496.295.697.202.202.496.496 1.085 1.1.202.186.31.388.31.59 0 .402-.31.588-.31.588s-5.456 6.356-6.34 7.348c-.79 1.085-1.1 2.185-1.1 3.177 0 2.077 1.194 3.968 2.092 4.759l4.759 4.758c.295.295.496.403.79.403.497 0 .9-.403.9-.403s.697-.589 1.379-1.38c.31-.31.403-.604.403-.898s-.093-.496-.294-.698c-.202-.201-.497-.496-1.101-1.085-.186-.201-.294-.403-.294-.604 0-.388.294-.682.294-.682s5.363-6.355 6.262-7.347c.79-1.085 1.085-2.186 1.085-3.178 0-2.077-1.193-3.968-2.077-4.758l-4.774-4.759c-.294-.294-.589-.403-.79-.403-.497 0-.791.403-.791.403" class="Arpeggio"/><path d="M2865 257.37s-.698.589-1.395 1.38c-.294.31-.388.697-.388.992 0 .31.094.496.295.697.202.202.496.496 1.085 1.1.202.186.31.388.31.59 0 .402-.31.588-.31.588s-5.456 6.356-6.34 7.348c-.79 1.085-1.1 2.185-1.1 3.177 0 2.077 1.194 3.968 2.092 4.759l4.759 4.758c.295.295.496.403.79.403.497 0 .9-.403.9-.403s.697-.589 1.379-1.38c.31-.31.403-.604.403-.898s-.093-.496-.294-.698c-.202-.201-.497-.496-1.101-1.085-.186-.201-.294-.403-.294-.604 0-.388.294-.682.294-.682s5.363-6.355 6.262-7.347c.79-1.085 1.085-2.186 1.085-3.178 0-2.077-1.193-3.968-2.077-4.758l-4.774-4.759c-.294-.294-.589-.403-.79-.403-.497 0-.791.403-.791.403" class="Arpeggio"/><path d="M2865 235.55s-.698.589-1.395 1.38c-.294.31-.388.697-.388.992 0 .31.094.496.295.697.202.202.496.496 1.085 1.1.202.186.31.388.31.59 0 .402-.31.588-.31.588s-5.456 6.356-6.34 7.348c-.79 1.085-1.1 2.185-1.1 3.177 0 2.077 1.194 3.968 2.092 4.759l4.759 4.758c.295.295.496.403.79.403.497 0 .9-.403.9-.403s.697-.589 1.379-1.38c.31-.31.403-.604.403-.898s-.093-.496-.294-.698c-.202-.201-.497-.496-1.101-1.085-.186-.201-.294-.403-.294-.604 0-.388.294-.682.294-.682s5.363-6.355 6.262-7.347c.79-1.085 1.085-2.186 1.085-3.178 0-2.077-1.193-3.968-2.077-4.758l-4.774-4.759c-.294-.294-.589-.403-.79-.403-.497 0-.791.403-.791.403" class="Arpeggio"/><path d="M2865 213.73s-.698.589-1.395 1.38c-.294.31-.388.697-.388.991 0 .31.094.496.295.698.202.202.496.496 1.085 1.1.202.186.31.388.31.59 0 .402-.31.588-.31.588s-5.456 6.356-6.34 7.348c-.79 1.085-1.1 2.185-1.1 3.177 0 2.077 1.194 3.968 2.092 4.759l4.759 4.758c.295.295.496.403.79.403.497 0 .9-.403.9-.403s.697-.589 1.379-1.38c.31-.31.403-.604.403-.898s-.093-.496-.294-.698c-.202-.201-.497-.496-1.101-1.085-.186-.201-.294-.403-.294-.604 0-.388.294-.682.294-.682s5.363-6.355 6.262-7.347c.79-1.085 1.085-2.186 1.085-3.178 0-2.077-1.193-3.968-2.077-4.758l-4.774-4.759c-.294-.294-.589-.403-.79-.403-.497 0-.791.403-.791.403" class="Arpeggio"/><path d="M2865 191.9s-.698.589-1.395 1.38c-.294.31-.388.697-.388.992 0 .31.094.496.295.697.202.202.496.496 1.085 1.1.202.186.31.388.31.59 0 .402-.31.588-.31.588s-5.456 6.356-6.34 7.348c-.79 1.085-1.1 2.185-1.1 3.177 0 2.077 1.194 3.968 2.092 4.759l4.759 4.758c.295.295.496.403.79.403.497 0 .9-.403.9-.403s.697-.589 1.379-1.38c.31-.31.403-.604.403-.898s-.093-.496-.294-.698c-.202-.201-.497-.496-1.101-1.085-.186-.201-.294-.403-.294-.604 0-.388.294-.682.294-.682s5.363-6.355 6.262-7.347c.79-1.085 1.085-2.186 1.085-3.178 0-2.077-1.193-3.968-2.077-4.758l-4.774-4.759c-.294-.294-.589-.403-.79-.403-.497 0-.791.403-.791.403" class="Arpeggio"/><path d="M2865 170.08s-.698.589-1.395 1.38c-.294.31-.388.697-.388.992 0 .31.094.496.295.697.202.202.496.496 1.085 1.1.202.186.31.388.31.59 0 .402-.31.588-.31.588s-5.456 6.356-6.34 7.348c-.79 1.085-1.1 2.185-1.1 3.177 0 2.077 1.194 3.968 2.092 4.759l4.759 4.758c.295.295.496.403.79.403.497 0 .9-.403.9-.403s.697-.589 1.379-1.38c.31-.31.403-.604.403-.898s-.093-.496-.294-.698c-.202-.201-.497-.496-1.101-1.085-.186-.201-.294-.403-.294-.604 0-.388.294-.682.294-.682s5.363-6.355 6.262-7.347c.79-1.085 1.085-2.186 1.085-3.178 0-2.077-1.193-3.968-2.077-4.758l-4.774-4.759c-.294-.294-.589-.403-.79-.403-.497 0-.791.403-.791.403" class="Arpeggio"/><path d="M2865 148.25s-.698.589-1.395 1.38c-.294.31-.388.697-.388.992 0 .31.094.495.295.697.202.202.496.496 1.085 1.1.202.186.31.388.31.59 0 .402-.31.588-.31.588s-5.456 6.356-6.34 7.348c-.79 1.085-1.1 2.185-1.1 3.177 0 2.077 1.194 3.968 2.092 4.759l4.759 4.758c.295.295.496.403.79.403.497 0 .9-.403.9-.403s.697-.589 1.379-1.38c.31-.31.403-.604.403-.898s-.093-.496-.294-.698c-.202-.201-.497-.496-1.101-1.085-.186-.201-.294-.403-.294-.604 0-.388.294-.682.294-.682s5.363-6.355 6.262-7.347c.79-1.085 1.085-2.186 1.085-3.178 0-2.077-1.193-3.968-2.077-4.758l-4.774-4.759c-.294-.294-.589-.403-.79-.403-.497 0-.791.403-.791.403" class="Arpeggio"/><path d="M2865 126.43s-.698.589-1.395 1.38c-.294.31-.388.697-.388.991 0 .31.094.497.295.698.202.202.496.496 1.085 1.1.202.186.31.388.31.59 0 .402-.31.588-.31.588s-5.456 6.356-6.34 7.348c-.79 1.085-1.1 2.185-1.1 3.177 0 2.077 1.194 3.968 2.092 4.759l4.759 4.758c.295.295.496.403.79.403.497 0 .9-.403.9-.403s.697-.589 1.379-1.38c.31-.31.403-.604.403-.898s-.093-.496-.294-.698c-.202-.201-.497-.496-1.101-1.085-.186-.201-.294-.403-.294-.604 0-.388.294-.682.294-.682s5.363-6.355 6.262-7.347c.79-1.085 1.085-2.186 1.085-3.178 0-2.077-1.193-3.968-2.077-4.758l-4.774-4.759c-.294-.294-.589-.403-.79-.403-.497 0-.791.403-.791.403" class="Arpeggio"/><path d="M2865 104.61s-.698.589-1.395 1.38c-.294.31-.388.697-.388.991 0 .31.094.497.295.698.202.202.496.496 1.085 1.1.202.186.31.388.31.59 0 .402-.31.588-.31.588s-5.456 6.356-6.34 7.348c-.79 1.085-1.1 2.185-1.1 3.177 0 2.077 1.194 3.968 2.092 4.759l4.759 4.758c.295.295.496.403.79.403.497 0 .9-.403.9-.403s.697-.589 1.379-1.38c.31-.31.403-.604.403-.898s-.093-.496-.294-.698c-.202-.201-.497-.496-1.101-1.085-.186-.201-.294-.403-.294-.604 0-.388.294-.682.294-.682s5.363-6.355 6.262-7.347c.79-1.085 1.085-2.186 1.085-3.178 0-2.077-1.193-3.968-2.077-4.758l-4.774-4.759c-.294-.294-.589-.403-.79-.403-.497 0-.791.403-.791.403" class="Arpeggio"/><path d="M2865 82.782s-.698.589-1.395 1.38c-.294.31-.388.697-.388.991 0 .31.094.496.295.698.202.202.496.496 1.085 1.1.202.186.31.388.31.59 0 .402-.31.588-.31.588s-5.456 6.356-6.34 7.348c-.79 1.085-1.1 2.185-1.1 3.177 0 2.077 1.194 3.968 2.092 4.759l4.759 4.758c.295.295.496.403.79.403.497 0 .9-.403.9-.403s.697-.589 1.379-1.38c.31-.31.403-.604.403-.898s-.093-.496-.294-.698c-.202-.201-.497-.496-1.101-1.085-.186-.201-.294-.403-.294-.604 0-.388.294-.682.294-.682s5.363-6.355 6.262-7.347c.79-1.085 1.085-2.186 1.085-3.178 0-2.077-1.193-3.968-2.077-4.758l-4.774-4.759c-.294-.294-.589-.403-.79-.403-.497 0-.791.403-.791.403" class="Arpeggio"/><path d="M1759.4 96.921c-4.96 0-7.843 3.069-8.339 3.674l.403-31.853c0-.79-.589-1.38-1.395-1.38h-1.178c-.806 0-1.395.59-1.395 1.38l.496 59.628c0 .791.589 1.38 1.395 1.38.186 0 .589-.093.79-.186 8.526-4.278 17.454-12.4 17.454-22.63 0-5.146-2.372-10.013-8.231-10.013m-8.634 27.978.295-19.344c.201-.899 1.69-3.766 5.657-3.766 3.581 0 3.875 3.363 3.875 5.456 0 8.819-3.27 12.493-9.827 17.654M2285.4 94.147c-.186-.201-.496-.295-.884-.295l-.201.094h-.093l-12.51 3.472v-17.36h-2.774v49.104c0 1.085.9 1.286 1.783 1.286l12.509-3.472v17.36h2.666V95.232c0-.388-.186-.884-.496-1.085m-13.686 27.776v-16.275l11.517-3.27v16.367l-11.517 3.178" class="Accidental"/></g><g fill="none" stroke="#000" stroke-linejoin="bevel"><g stroke-width="3.97"><path d="M943.88 37.9h49.59M749.52 37.9h49.6M1008.66 37.9h49.6M879.09 37.9h49.6M1138.23 37.9h49.6M814.31 37.9h49.59M1138.23 13.1h49.6M879.09 13.1h49.6M879.09 273.5h49.6M1138.23 298.3h49.6M1008.66 298.3h49.6M749.52 298.3h49.6M749.52 273.5h49.6M1138.23 273.5h49.6M2877.11 447.1h54.4M2877.11 471.9h54.4M879.09 298.3h49.6" class="LedgerLine"/></g><g stroke-width="2.48"><path d="M1934.31 133.13V43.98M2128.71 133.13V42.06M2193.51 108.33V37.97M1869.61 120.73v-82.8M629.87 66.86v70.2M2258.31 120.73V25.5M2323.11 108.33V25.5M2387.81 95.93V25.5M2452.61 157.93V25.5M694.66 54.46v80.56M2517.41 170.33V25.5M759.44 42.06v90.92M2582.21 95.93V25.5M2647.01 145.53V25.5M824.23 29.66v101.27M2711.81 108.33V25.5M889.01 17.26v113.67M1804.81 108.33V31.89M1536.91 91.66v86.76M953.8 42.06v90.92M1018.58 29.66v105.36M1083.37 54.46v82.6M1148.15 17.26v88.95M1737.51 95.93V25.61M1999.11 145.53V50.22M1277.72 54.46v63.92M1601.61 104.06v76.4M1407.31 79.26v95.07M2063.91 120.73V46.14M1839.81 389.26v64.04M1969.41 376.86v76.44M1536.91 352.06v90.88M2228.51 352.06v95.04M629.87 327.26v70.22M1472.11 364.46v74.4M1212.94 376.86v70.24M1342.51 352.06v95.04M1601.61 376.86v70.16M1277.72 364.46v82.64M2098.91 364.46v88.84M2358.11 364.46v82.64M1407.31 339.66v95.11M2422.91 352.06v95.04M2517.41 331.53v-57.86M1148.15 277.66V447.1M2293.31 376.86v70.24M2647.01 418.33V291.92M1018.58 290.06v101.26M759.44 265.26v130.16M889.01 277.66v115.71M1707.81 364.46v88.84" class="Stem"/></g></g><g stroke-width=".992"><path d="M2227.3 128.87c0 4.263 3.069 9.021 11.114 9.021 10.308 0 21.127-8.432 21.127-17.159 0-5.859-4.96-9.13-11.114-9.13-9.626 0-21.127 8.138-21.127 17.268M1406 79.267c0 4.263 3.069 9.021 11.114 9.021 10.308 0 21.127-8.432 21.127-17.159 0-5.859-4.96-9.13-11.114-9.13-9.626 0-21.127 8.138-21.127 17.267M2292.1 116.47c0 4.263 3.069 9.021 11.114 9.021 10.308 0 21.127-8.432 21.127-17.159 0-5.859-4.96-9.13-11.114-9.13-9.626 0-21.127 8.138-21.127 17.267M1706.5 104.07c0 4.263 3.069 9.021 11.114 9.021 10.308 0 21.127-8.432 21.127-17.159 0-5.859-4.96-9.13-11.114-9.13-9.626 0-21.127 8.138-21.127 17.267M1146.9 17.267c0 4.263 3.069 9.021 11.114 9.021 10.308 0 21.126-8.432 21.126-17.159 0-5.859-4.96-9.13-11.114-9.13-9.626 0-21.126 8.138-21.126 17.268M2356.9 104.07c0 4.263 3.069 9.021 11.114 9.021 10.308 0 21.127-8.432 21.127-17.159 0-5.859-4.96-9.13-11.114-9.13-9.626 0-21.127 8.138-21.127 17.267M1838.6 128.87c0 4.263 3.069 9.021 11.114 9.021 10.308 0 21.127-8.432 21.127-17.159 0-5.859-4.96-9.13-11.114-9.13-9.626 0-21.127 8.138-21.127 17.268M628.63 66.867c0 4.263 3.069 9.021 11.113 9.021 10.308 0 21.127-8.432 21.127-17.159 0-5.859-4.96-9.13-11.113-9.13-9.626 0-21.127 8.138-21.127 17.268M2421.6 166.07c0 4.263 3.069 9.021 11.114 9.021 10.308 0 21.127-8.432 21.127-17.159 0-5.859-4.96-9.13-11.114-9.13-9.626 0-21.127 8.138-21.127 17.268M1773.8 116.47c0 4.263 3.069 9.021 11.114 9.021 10.308 0 21.127-8.432 21.127-17.159 0-5.859-4.96-9.13-11.114-9.13-9.626 0-21.127 8.138-21.127 17.267M1600.4 104.07c0 4.263 3.069 9.021 11.114 9.021 10.308 0 21.127-8.432 21.127-17.159 0-5.859-4.96-9.13-11.114-9.13-9.626 0-21.127 8.138-21.127 17.267M2486.4 178.47c0 4.263 3.069 9.021 11.114 9.021 10.308 0 21.127-8.432 21.127-17.159 0-5.859-4.96-9.13-11.114-9.13-9.626 0-21.127 8.138-21.127 17.267M758.2 42.067c0 4.263 3.069 9.021 11.113 9.021 10.308 0 21.127-8.432 21.127-17.159 0-5.859-4.96-9.13-11.113-9.13-9.626 0-21.127 8.138-21.127 17.268M822.99 29.667c0 4.263 3.069 9.021 11.113 9.021 10.308 0 21.127-8.432 21.127-17.159 0-5.859-4.96-9.13-11.113-9.13-9.626 0-21.127 8.138-21.127 17.268M2551.2 104.07c0 4.263 3.069 9.021 11.114 9.021 10.308 0 21.127-8.432 21.127-17.159 0-5.859-4.96-9.13-11.114-9.13-9.626 0-21.127 8.138-21.127 17.267M1903.4 141.27c0 4.263 3.069 9.021 11.114 9.021 10.308 0 21.127-8.432 21.127-17.159 0-5.859-4.96-9.13-11.114-9.13-9.626 0-21.127 8.138-21.127 17.268M2616 153.67c0 4.263 3.069 9.021 11.114 9.021 10.308 0 21.127-8.432 21.127-17.159 0-5.859-4.96-9.13-11.114-9.13-9.626 0-21.127 8.138-21.127 17.267M1968.1 153.67c0 4.263 3.069 9.021 11.114 9.021 10.308 0 21.127-8.432 21.127-17.159 0-5.859-4.96-9.13-11.114-9.13-9.626 0-21.127 8.138-21.127 17.267M1535.6 91.667c0 4.263 3.069 9.021 11.114 9.021 10.308 0 21.127-8.432 21.127-17.159 0-5.859-4.96-9.13-11.114-9.13-9.626 0-21.127 8.138-21.127 17.267M693.42 54.467c0 4.263 3.069 9.021 11.113 9.021 10.308 0 21.127-8.432 21.127-17.159 0-5.859-4.96-9.13-11.113-9.13-9.626 0-21.127 8.138-21.127 17.268M1082.1 54.467c0 4.263 3.069 9.021 11.114 9.021 10.308 0 21.126-8.432 21.126-17.159 0-5.859-4.96-9.13-11.114-9.13-9.626 0-21.126 8.138-21.126 17.268M2032.9 128.87c0 4.263 3.069 9.021 11.114 9.021 10.308 0 21.127-8.432 21.127-17.159 0-5.859-4.96-9.13-11.114-9.13-9.626 0-21.127 8.138-21.127 17.268M1017.3 29.667c0 4.263 3.069 9.021 11.114 9.021 10.308 0 21.126-8.432 21.126-17.159 0-5.859-4.96-9.13-11.114-9.13-9.626 0-21.126 8.138-21.126 17.268M2097.7 141.27c0 4.263 3.069 9.021 11.114 9.021 10.308 0 21.127-8.432 21.127-17.159 0-5.859-4.96-9.13-11.114-9.13-9.626 0-21.127 8.138-21.127 17.268M952.56 42.067c0 4.263 3.069 9.021 11.113 9.021 10.308 0 21.127-8.432 21.127-17.159 0-5.859-4.96-9.13-11.113-9.13-9.626 0-21.127 8.138-21.127 17.268M2680.8 116.47c0 4.263 3.069 9.021 11.114 9.021 10.308 0 21.127-8.432 21.127-17.159 0-5.859-4.96-9.13-11.114-9.13-9.626 0-21.127 8.138-21.127 17.267M2904.4 123.61c-13.686 0-18.554 6.944-18.554 13.392 0 6.448 4.867 13.392 18.554 13.392 13.687 0 18.445-6.944 18.445-13.392 0-6.448-4.758-13.392-18.445-13.392m.79 23.607c-2.774 0-4.665-.79-5.951-3.27-1.287-2.48-3.07-8.928-3.178-11.517-.201-2.682.79-4.263 3.177-5.053 1.194-.403 2.775-.605 4.372-.605 2.666 0 4.464.605 5.843 3.286 1.395 2.573 3.286 9.021 3.286 11.501 0 4.867-3.58 5.657-7.549 5.657M2904.4 86.412c-13.686 0-18.554 6.944-18.554 13.392 0 6.448 4.867 13.392 18.554 13.392 13.687 0 18.445-6.944 18.445-13.392 0-6.448-4.758-13.392-18.445-13.392m.79 23.607c-2.774 0-4.665-.79-5.951-3.27-1.287-2.48-3.07-8.928-3.178-11.517-.201-2.682.79-4.263 3.177-5.053 1.194-.403 2.775-.605 4.372-.605 2.666 0 4.464.605 5.843 3.286 1.395 2.573 3.286 9.021 3.286 11.501 0 4.867-3.58 5.658-7.549 5.658M1276.5 54.467c0 4.263 3.069 9.021 11.114 9.021 10.308 0 21.126-8.432 21.126-17.159 0-5.859-4.96-9.13-11.114-9.13-9.626 0-21.126 8.138-21.126 17.268M2162.5 116.47c0 4.263 3.069 9.021 11.114 9.021 10.308 0 21.127-8.432 21.127-17.159 0-5.859-4.96-9.13-11.114-9.13-9.626 0-21.127 8.138-21.127 17.267M887.77 17.267c0 4.263 3.069 9.021 11.113 9.021 10.308 0 21.127-8.432 21.127-17.159 0-5.859-4.96-9.13-11.113-9.13-9.626 0-21.127 8.138-21.127 17.268" class="Note"/><path d="M2904.4 148.41c-13.686 0-18.554 6.944-18.554 13.392 0 6.448 4.867 13.392 18.554 13.392 13.687 0 18.445-6.944 18.445-13.392 0-6.448-4.758-13.392-18.445-13.392m.79 23.607c-2.774 0-4.665-.79-5.951-3.27-1.287-2.48-3.07-8.929-3.178-11.518-.201-2.681.79-4.262 3.177-5.053 1.194-.402 2.775-.604 4.372-.604 2.666 0 4.464.605 5.843 3.286 1.395 2.573 3.286 9.021 3.286 11.501 0 4.867-3.58 5.657-7.549 5.657M1600.4 376.87c0 4.263 3.069 9.021 11.114 9.021 10.308 0 21.127-8.432 21.127-17.159 0-5.859-4.96-9.13-11.114-9.13-9.626 0-21.127 8.138-21.127 17.268M2486.4 339.67c0 4.263 3.069 9.021 11.114 9.021 10.308 0 21.127-8.432 21.127-17.159 0-5.859-4.96-9.13-11.114-9.13-9.626 0-21.127 8.138-21.127 17.268M1276.5 364.47c0 4.263 3.069 9.021 11.114 9.021 10.308 0 21.126-8.432 21.126-17.159 0-5.859-4.96-9.13-11.114-9.13-9.626 0-21.126 8.138-21.126 17.268M1706.5 364.47c0 4.263 3.069 9.021 11.114 9.021 10.308 0 21.127-8.432 21.127-17.159 0-5.859-4.96-9.13-11.114-9.13-9.626 0-21.127 8.138-21.127 17.268M1838.6 389.27c0 4.263 3.069 9.021 11.114 9.021 10.308 0 21.127-8.432 21.127-17.159 0-5.859-4.96-9.13-11.114-9.13-9.626 0-21.127 8.138-21.127 17.267M2227.3 352.07c0 4.263 3.069 9.021 11.114 9.021 10.308 0 21.127-8.432 21.127-17.159 0-5.859-4.96-9.13-11.114-9.13-9.626 0-21.127 8.138-21.127 17.267M628.63 327.27c0 4.263 3.069 9.021 11.113 9.021 10.308 0 21.127-8.432 21.127-17.159 0-5.859-4.96-9.13-11.113-9.13-9.626 0-21.127 8.138-21.127 17.267M2616 426.47c0 4.263 3.069 9.021 11.114 9.021 10.308 0 21.127-8.432 21.127-17.159 0-5.859-4.96-9.13-11.114-9.13-9.626 0-21.127 8.138-21.127 17.268M758.2 265.27c0 4.263 3.069 9.021 11.113 9.021 10.308 0 21.127-8.432 21.127-17.159 0-5.859-4.96-9.13-11.113-9.13-9.626 0-21.127 8.138-21.127 17.267M887.77 277.67c0 4.263 3.069 9.021 11.113 9.021 10.308 0 21.127-8.432 21.127-17.159 0-5.859-4.96-9.13-11.113-9.13-9.626 0-21.127 8.138-21.127 17.268M1017.3 290.07c0 4.263 3.069 9.021 11.114 9.021 10.308 0 21.126-8.432 21.126-17.159 0-5.859-4.96-9.13-11.114-9.13-9.626 0-21.126 8.138-21.126 17.267M2292.1 376.87c0 4.263 3.069 9.021 11.114 9.021 10.308 0 21.127-8.432 21.127-17.159 0-5.859-4.96-9.13-11.114-9.13-9.626 0-21.127 8.138-21.127 17.268M1968.1 376.87c0 4.263 3.069 9.021 11.114 9.021 10.308 0 21.127-8.432 21.127-17.159 0-5.859-4.96-9.13-11.114-9.13-9.626 0-21.127 8.138-21.127 17.268M1146.9 277.67c0 4.263 3.069 9.021 11.114 9.021 10.308 0 21.126-8.432 21.126-17.159 0-5.859-4.96-9.13-11.114-9.13-9.626 0-21.126 8.138-21.126 17.268M1211.7 376.87c0 4.263 3.069 9.021 11.113 9.021 10.308 0 21.127-8.432 21.127-17.159 0-5.859-4.96-9.13-11.114-9.13-9.626 0-21.126 8.138-21.126 17.268M2356.9 364.47c0 4.263 3.069 9.021 11.114 9.021 10.308 0 21.127-8.432 21.127-17.159 0-5.859-4.96-9.13-11.114-9.13-9.626 0-21.127 8.138-21.127 17.268M1341.3 352.07c0 4.263 3.069 9.021 11.114 9.021 10.308 0 21.126-8.432 21.126-17.159 0-5.859-4.96-9.13-11.114-9.13-9.626 0-21.126 8.138-21.126 17.267M1406 339.67c0 4.263 3.069 9.021 11.114 9.021 10.308 0 21.127-8.432 21.127-17.159 0-5.859-4.96-9.13-11.114-9.13-9.626 0-21.127 8.138-21.127 17.268M1470.8 364.47c0 4.263 3.069 9.021 11.114 9.021 10.308 0 21.127-8.432 21.127-17.159 0-5.859-4.96-9.13-11.114-9.13-9.626 0-21.127 8.138-21.127 17.268M2421.6 352.07c0 4.263 3.069 9.021 11.114 9.021 10.308 0 21.127-8.432 21.127-17.159 0-5.859-4.96-9.13-11.114-9.13-9.626 0-21.127 8.138-21.127 17.267M2904.4 458.41c-13.686 0-18.554 6.944-18.554 13.392 0 6.448 4.867 13.392 18.554 13.392 13.687 0 18.445-6.944 18.445-13.392 0-6.448-4.758-13.392-18.445-13.392m.79 23.607c-2.774 0-4.665-.79-5.951-3.27-1.287-2.48-3.07-8.928-3.178-11.517-.201-2.682.79-4.263 3.177-5.053 1.194-.403 2.775-.605 4.372-.605 2.666 0 4.464.605 5.843 3.286 1.395 2.573 3.286 9.021 3.286 11.501 0 4.867-3.58 5.657-7.549 5.657M2904.4 371.61c-13.686 0-18.554 6.944-18.554 13.392 0 6.448 4.867 13.392 18.554 13.392 13.687 0 18.445-6.944 18.445-13.392 0-6.448-4.758-13.392-18.445-13.392m.79 23.607c-2.774 0-4.665-.79-5.951-3.27-1.287-2.48-3.07-8.929-3.178-11.518-.201-2.681.79-4.262 3.177-5.053 1.194-.402 2.775-.604 4.372-.604 2.666 0 4.464.604 5.843 3.286 1.395 2.573 3.286 9.021 3.286 11.501 0 4.867-3.58 5.657-7.549 5.657M2097.7 364.47c0 4.263 3.069 9.021 11.114 9.021 10.308 0 21.127-8.432 21.127-17.159 0-5.859-4.96-9.13-11.114-9.13-9.626 0-21.127 8.138-21.127 17.268M1535.6 352.07c0 4.263 3.069 9.021 11.114 9.021 10.308 0 21.127-8.432 21.127-17.159 0-5.859-4.96-9.13-11.114-9.13-9.626 0-21.127 8.138-21.127 17.267" class="Note"/><path d="M454.64 187.98c0 6.556 4.96 15.19 18.352 15.19 4.665 0 8.742-1.194 12.307-3.379 5.363-3.766 6.742-10.323 6.742-16.57 0-3.86-.588-8.323-1.58-13.981-.295-1.984-.9-4.96-1.489-8.835 9.719-3.178 16.957-13.3 16.957-23.514 0-14.973-10.617-25.095-25.095-25.095-.992-5.952-1.984-11.811-2.774-17.36 10.416-11.021 17.654-23.421 17.654-39.184 0-9.037-2.774-16.368-4.37-19.948-2.372-5.053-5.255-8.525-7.038-8.525-.697 0-3.766 1.193-7.037 5.053-6.355 7.548-8.138 20.243-8.138 28.566 0 5.363.496 10.23 2.186 21.343-.109.093-5.27 5.347-7.347 7.037-9.037 8.339-21.53 20.429-21.53 40.285 0 18.538 16.167 33.124 34.627 33.124 2.867 0 5.549-.295 7.827-.697 1.891 9.532 3.085 16.476 3.085 21.73 0 10.324-5.363 15.78-15.376 15.78-2.387 0-4.464-.496-4.666-.496-.093-.109-.294-.202-.294-.295 0-.201.201-.31.496-.31 4.665-.79 9.315-4.759 9.315-11.098 0-5.363-4.06-11.021-11.5-11.021-6.945 0-11.316 5.657-11.316 12.199m20.74-132.43c.898-3.968 5.455-14.384 10.617-14.384 1.488 0 3.86 4.758 3.86 11.702 0 10.323-7.626 18.058-14.477 24.8-.59-3.968-1.085-7.828-1.085-11.997 0-3.674.294-7.053 1.085-10.121m8.726 101.97c-1.984.403-3.86.604-5.75.604-14.182 0-26.288-9.92-26.288-24.908 0-12.09 8.525-22.909 17.267-30.458 1.674-1.488 3.27-2.867 4.758-4.355.884 5.347 1.581 10.013 2.279 14.089-9.037 2.681-15.174 12.199-15.174 21.53 0 6.944 5.456 16.46 13.392 16.46.79 0 1.69-.402 1.69-1.286 0-.899-.993-1.395-2.186-2.185-3.875-2.387-6.06-4.96-6.06-9.827 0-6.045 4.572-10.912 10.322-12.292l5.75 32.628m14.09-18.352c0 7.052-2.883 14.29-9.92 17.174-2.077-11.904-4.759-27.683-5.456-32.054 8.928 0 15.376 6.06 15.376 14.88M467.64 323.01c-7.548 0-13.594 4.356-13.702 4.356-5.844 4.262-9.61 10.819-9.61 18.058 0 7.238 4.154 12.6 11.5 12.6 6.356 0 11.316-4.262 11.316-10.818 0-5.658-4.96-10.308-10.525-10.308-1.194 0-2.279.186-3.178.496-.992.387-2.666 1.38-3.472 2.077.698-4.371 3.674-8.727 7.549-10.82 2.48-1.379 5.657-1.983 9.13-1.983 10.12 0 15.08 8.137 15.08 24.8 0 12.896-8.246 31.45-17.965 40.192-10.323 9.424-20.042 13.888-20.135 13.888 0 0-1.193.682-1.193 1.875 0 .202.093.295.093.496.31.992 1.193 1.194 1.89 1.194l.295-.093c.202 0 11.517-4.666 20.538-11.718 13.888-10.013 29.56-27.668 29.56-45.927 0-17.267-9.316-28.365-27.173-28.365m31.14 12.586c0 2.79 2.186 4.96 4.774 4.96 2.573 0 4.759-2.17 4.759-4.96 0-2.775-2.186-5.053-4.759-5.053-2.588 0-4.774 2.278-4.774 5.053m0 24.506c0 2.774 2.186 5.068 4.774 5.068 2.573 0 4.759-2.294 4.759-5.068 0-2.775-2.186-5.053-4.759-5.053-2.588 0-4.774 2.278-4.774 5.053" class="Clef"/><path d="M565.34 94.534c-2.48 1.597-4.263 4.464-4.263 7.642 0 .403 0 .79.094 1.193.496 4.061 3.782 7.239 7.843 7.735h1.085a8.89 8.89 0 0 0 8.928-8.928c0-.698 0-1.38-.186-2.077-.9-4.263-4.774-13.392-21.638-13.392-21.623 0-24.103 17.949-24.103 24.397 0 11.81 1.488 26.598 26.288 26.598 9.827 0 17.469-5.766 17.856-16.384 0-.496-.295-.79-.79-.79h-1.287c-.403 0-.79.402-.79.79-.404 8.246-6.263 13.206-14.99 13.206-8.633 0-12.803-4.666-12.803-13.392v-18.956c0-5.55 2.186-11.904 11.02-11.904 4.666 0 6.743 1.69 7.843 3.379.093.201.093.294.093.496 0 .093 0 .294-.201.387M565.34 354.94c-2.48 1.597-4.263 4.464-4.263 7.642 0 .403 0 .79.094 1.193.496 4.061 3.782 7.239 7.843 7.735h1.085a8.89 8.89 0 0 0 8.928-8.928c0-.698 0-1.38-.186-2.077-.9-4.263-4.774-13.392-21.638-13.392-21.623 0-24.103 17.949-24.103 24.397 0 11.81 1.488 26.598 26.288 26.598 9.827 0 17.469-5.766 17.856-16.384 0-.496-.295-.79-.79-.79h-1.287c-.403 0-.79.402-.79.79-.404 8.246-6.263 13.206-14.99 13.206-8.633 0-12.803-4.666-12.803-13.392v-18.956c0-5.55 2.186-11.904 11.02-11.904 4.666 0 6.743 1.69 7.843 3.379.093.201.093.294.093.496 0 .093 0 .294-.201.387" class="TimeSig"/><path d="M2927.1 24.505c-9.316-10.121-17.562-10.711-22.708-10.711-5.162 0-13.299.589-22.63 10.711-4.852 5.363-8.23 15.965-8.23 21.328 0 1.891.402 3.178 1.394 3.178 2.775 0 1.38-8.541 9.719-16.974 7.332-7.331 17.159-7.44 19.546-7.44h.387c2.387 0 12.214.109 19.546 7.44 8.34 8.433 6.944 16.974 9.719 16.974.992 0 1.395-1.194 1.395-3.178 0-5.363-3.27-16.073-8.138-21.328m-29.559 18.941a6.853 6.853 0 0 0 6.852 6.851c3.766 0 6.835-3.069 6.835-6.851 0-3.767-3.069-6.835-6.835-6.835-3.782 0-6.852 3.069-6.852 6.835M2897.5 501.86c0 3.767 3.07 6.835 6.851 6.835 3.767 0 6.836-3.069 6.836-6.835 0-3.782-3.07-6.851-6.836-6.851a6.853 6.853 0 0 0-6.851 6.851m29.559 18.941c4.867-5.255 8.137-15.965 8.137-21.328 0-1.984-.402-3.177-1.394-3.177-2.775 0-1.38 8.54-9.719 16.973-7.332 7.331-17.159 7.44-19.546 7.44h-.387c-2.387 0-12.214-.109-19.546-7.44-8.34-8.433-6.944-16.973-9.719-16.973-.992 0-1.395 1.286-1.395 3.177 0 5.363 3.379 15.965 8.23 21.328 9.332 10.121 17.47 10.711 22.63 10.711 5.147 0 13.393-.589 22.709-10.711" class="Fermata"/></g><g fill-rule="evenodd"><path d="m628.63 130.89 196.84-6.2v12.406l-196.84 6.2V130.89M628.63 112.29l196.84-6.2v12.406l-196.84 6.2V112.29M1406 168.09l196.84 6.2v12.406l-196.84-6.2V168.09M1535.6 153.58l67.27 2.118v12.406l-67.27-2.118V153.58M2257 19.297h196.83v12.4H2257v-12.4M2257 37.897h196.83v12.4H2257v-12.4M1146.9 99.87l132.05 12.4v12.455l-132.05-12.4V99.87M2516.2 19.297h196.83v12.4H2516.2v-12.4M2516.2 37.897h196.83v12.4H2516.2v-12.4M1736.3 19.27l199.29 18.6v12.454l-199.29-18.6V19.27M1736.3 37.87l199.29 18.6v12.454l-199.29-18.6V37.87M1997.9 44.085l196.83-12.4v12.424L1997.9 56.51V44.085M1997.9 62.685l196.83-12.4V62.71l-196.83 12.4V62.685M887.77 124.69l196.84 6.2v12.406l-196.84-6.2V124.69M887.77 106.09l196.84 6.2v12.406l-196.84-6.2V106.09M1706.5 447.1h393.66v12.4H1706.5v-12.4M628.63 391.3l391.19-6.2v12.401l-391.19 6.2V391.3M1146.9 440.9h196.84v12.4H1146.9v-12.4M1146.9 422.3h196.84v12.4H1146.9v-12.4M2227.3 440.9h196.83v12.4H2227.3v-12.4M2227.3 422.3h196.83v12.4H2227.3v-12.4M2516.2 267.24l132.05 18.6v12.523l-132.05-18.6V267.24M1406 428.49l196.84 12.4v12.425l-196.84-12.4V428.49M1406 409.89l196.84 12.4v12.425l-196.84-12.4V409.89" class="Beam"/></g><path d="M391.31 242.5c6.462-6.855 19.048-20.846 19.048-46.748 0-32.757-14.047-65.852-14.047-86.304 0-21.969 12.586-42.478 13.316-43.152v-.73c0-.394 0-.731-.337-1.068-.393 0-1.124 0-1.461.674-.337.394-19.778 19.778-19.778 49.276 0 31.634 12.586 53.94 12.586 95.294 0 7.923-3.259 20.508-12.249 31.69-.337 0-.337.674-.674 1.068 0 .337.337.73.674 1.067 8.99 11.125 12.249 23.711 12.249 31.633 0 41.354-12.586 63.661-12.586 95.294 0 29.161 19.441 48.94 19.778 49.277.337.73 1.068 1.068 1.46.73.338-.336.675-.73.338-1.067v-.73c-.73-.73-13.316-21.24-13.316-43.152 0-20.508 14.047-53.603 14.047-86.304 0-26.24-12.586-39.95-19.048-46.748" class="Bracket"/></svg>