<svg width="256" height="256" version="1.1" viewBox="0 0 67.733 67.733" xmlns="http://www.w3.org/2000/svg" xmlns:xlink="http://www.w3.org/1999/xlink">
 <defs>
  <linearGradient id="c" x1="18.15" x2="57.165" y1="2.5607" y2="70.137" gradientTransform="translate(1.2898 13.781)" gradientUnits="userSpaceOnUse">
   <stop stop-color="#2ab3ff" offset="0"/>
   <stop stop-color="#ac36ee" offset="1"/>
  </linearGradient>
  <linearGradient id="b" x1="81.139" x2="62.499" y1="2" y2="42.301" gradientTransform="translate(1.2898 13.781)" gradientUnits="userSpaceOnUse">
   <stop stop-color="#ffd776" offset="0"/>
   <stop stop-color="#f9b000" offset="1"/>
  </linearGradient>
  <linearGradient id="a" x1="47.492" x2="77.434" y1="46.398" y2="63.952" gradientTransform="translate(1.2898 13.781)" gradientUnits="userSpaceOnUse">
   <stop stop-color="#ff8484" offset=".0017182"/>
   <stop stop-color="#e10003" offset="1"/>
  </linearGradient>
 </defs>
 <g transform="translate(-6.7619 -16.243)">
  <g transform="matrix(.76604 0 0 .76604 1.4664 7.9274)" fill-rule="evenodd">
   <path d="m75.895 16.393 17.457 2e-3c1.5267 9.7e-5 2.4702 1.6353 1.707 2.957l-17.062 29.551c-1.9882 3.4434-5.6689 5.5683-9.6445 5.5684h-17.453c-1.5256 3.6e-5 -2.47-1.6373-1.707-2.959l17.059-29.553c1.9874-3.4429 5.6687-5.5667 9.6445-5.5664z" fill="url(#b)"/>
   <path d="m9.2266 16.393c5.2783 1.35e-4 12.181 1.39e-4 17.459 0 3.4675-9.2e-5 7.911 2.5638 9.6445 5.5664 6.4247 11.128 18.972 32.86 25.396 43.988 1.7335 3.0026 1.7335 8.138 0 11.141-2.6388 4.5707-6.0894 10.547-8.7285 15.117-1.1801 2.0438-2.2341 2.0438-3.4141 0-9.3796-16.246-32.685-56.609-42.064-72.855-1.1801-2.0439-0.65342-2.9571 1.707-2.957z" fill="url(#c)"/>
   <path d="m50.898 59.693h34.121c1.5253 0 2.4698 1.6378 1.707 2.959l-17.062 29.553c-0.7627 1.321-2.6516 1.3209-3.4141 0l-17.059-29.553c-0.76296-1.3217 0.1813-2.959 1.707-2.959z" fill="url(#a)"/>
  </g>
 </g>
</svg>
